<?xml version="1.0" encoding="utf-8"?>
<!-- Generator: Adobe Illustrator 24.2.3, SVG Export Plug-In . SVG Version: 6.00 Build 0)  -->
<svg version="1.1" id="Capa_1" xmlns="http://www.w3.org/2000/svg" xmlns:xlink="http://www.w3.org/1999/xlink" x="0px" y="0px"
	 viewBox="0 0 354.5 58.65" style="enable-background:new 0 0 354.5 58.65;" xml:space="preserve">
<style type="text/css">
	.st0{fill:#7E2398;}
</style>
<g>
	<path class="st0" d="M12.93,14.44h0.77c1.68,0,2.52,0.84,2.52,2.52c0.07,1.99,0.11,3.88,0.11,5.69c0,0.18,0.04,0.47,0.11,0.88
		c-0.07,0.15-0.11,0.26-0.11,0.33c0.07,0.51,0.11,0.95,0.11,1.31h-0.11c-0.13-0.07-0.27-0.11-0.44-0.11h-0.11
		c-0.07,0-0.44,0.29-1.09,0.88h-0.22c0-0.22-0.07-0.33-0.22-0.33c-0.53,0-0.82,0.11-0.88,0.33v0.22c0.51,0,0.77,0.33,0.77,0.98
		c0.16,0.22,0.27,0.33,0.33,0.33h0.11c0.44-0.36,0.66-0.62,0.66-0.77h0.22v0.77h0.11c0-0.22,0.07-0.33,0.22-0.33h0.55
		c0,0.35,0.07,0.6,0.22,0.77v3.72l0.22,0.33v0.11c0,1.35-0.04,2.44-0.11,3.28c0.22,3.37,0.33,6.03,0.33,7.98v0.44
		c0,0.4,0.04,0.91,0.11,1.53c0,1.46-0.91,2.19-2.73,2.19c-2.97,0.09-5.16,0.2-6.56,0.33c-0.16,0-0.57-0.04-1.2-0.11
		C5.24,47.76,4.11,47.8,3.2,47.8c-1.46-0.16-2.19-0.78-2.19-1.86v-0.98c0-1.09,0.8-1.86,2.41-2.3c1.17-0.64,1.75-1.7,1.75-3.17
		c-0.13,0-0.31-5.14-0.55-15.42l0.11-0.66c0-1.46-0.51-2.48-1.53-3.06c-2.04-0.49-3.06-1.37-3.06-2.63v-1.09
		c0-1.17,1.28-1.75,3.83-1.75c0.69,0,2.77-0.11,6.23-0.33c0.29,0.07,0.55,0.11,0.77,0.11C11.69,14.51,12.35,14.44,12.93,14.44z
		 M5.71,24.61v0.11c0.02,0.15,0.09,0.22,0.22,0.22c0.15,0,0.22-0.07,0.22-0.22v-0.11c0-0.15-0.07-0.22-0.22-0.22
		C5.79,24.41,5.71,24.48,5.71,24.61z M7.68,34.23l0.22,0.11c0.15,0,0.22-0.07,0.22-0.22L7.9,34.02C7.76,34.03,7.68,34.11,7.68,34.23
		z M8.12,28.66v0.11c0.05,0.44,0.16,0.66,0.33,0.66c0.51-0.25,0.77-0.44,0.77-0.55v-0.22H9.11c-0.07,0-0.18,0.04-0.33,0.11
		L8.12,28.66z M8.56,23.41c0.02,0.15,0.09,0.22,0.22,0.22v-0.22H8.56z M9.76,21.98H9.11v0.11c0.11,0.29,0.22,0.44,0.33,0.44
		c0.66-0.15,0.98-0.29,0.98-0.44l-0.11-0.22L9.76,21.98z M9.32,30.84v0.33h0.33v-0.33H9.32z M10.42,28.11
		C10.29,28.04,10.14,28,9.98,28c-0.09,0.49-0.2,0.82-0.33,0.98v0.33c0.15,0,0.22,0.04,0.22,0.11c0.56-0.05,0.97-0.2,1.2-0.44h0.22
		l0.55,0.11c0.15-0.24,0.22-0.42,0.22-0.55c-0.15,0-0.22-0.07-0.22-0.22v-0.11h0.11l0.33,0.22h0.22v-0.88
		c-0.18,0-0.36-0.07-0.55-0.22C11.42,27.51,10.91,27.76,10.42,28.11z M10.09,25.16l0.22,0.11c0.15,0,0.22-0.07,0.22-0.22l-0.22-0.11
		C10.16,24.96,10.09,25.03,10.09,25.16z M10.2,33.8l0.22,0.11l0.11-0.22v-0.11h-0.11C10.27,33.6,10.2,33.67,10.2,33.8z M10.64,24.28
		c0.07,0.22,0.29,0.33,0.66,0.33c0-0.38-0.11-0.6-0.33-0.66C10.86,23.95,10.75,24.06,10.64,24.28z M10.75,26.8v0.22l0.55,0.11V26.8
		H10.75z M11.07,28.33l0.11,0.22c0,0.15-0.07,0.22-0.22,0.22l-0.11-0.22C10.87,28.4,10.95,28.33,11.07,28.33z M10.96,30.3v0.22h0.11
		V30.3H10.96z M12.5,25.38l0.22,0.11h0.22v-0.11c0-0.15-0.07-0.22-0.22-0.22C12.57,25.17,12.5,25.25,12.5,25.38z M13.04,26.58v0.11
		l0.11,0.22c-0.07,0.15-0.11,0.26-0.11,0.33h0.33v-0.22l-0.11-0.22c0.07,0,0.11-0.04,0.11-0.11l-0.22-0.11H13.04z M13.26,27.56
		l-0.11,0.22L13.59,28l0.66-0.11h0.22v-0.22C13.83,27.6,13.43,27.56,13.26,27.56z M15.89,28.11l0.22,0.77h0.22l-0.11-0.77H15.89z
		 M21.57,14h0.77c0.42,0,1,0.04,1.75,0.11L24.31,14c3.48,0.71,6.07,1.88,7.77,3.5c2.13,2.11,3.48,3.97,4.05,5.58
		c0.95,2.84,1.42,5.25,1.42,7.22v1.31c0,0.77-0.22,2.3-0.66,4.59v0.22h-0.55v0.33c0.22,0,0.33,0.11,0.33,0.33
		c-0.77,2.15-2.22,4.34-4.38,6.56c-0.11,0-0.33,0.22-0.66,0.66c0.15,0.02,0.22,0.09,0.22,0.22c-1.31,1.04-1.97,2.72-1.97,5.03
		l-0.44,0.33h-0.22c-0.22,0-0.4-0.66-0.55-1.97l0.11-0.44c-0.22-0.35-0.33-0.56-0.33-0.66c-1.02,0-1.68,1.02-1.97,3.06
		c0,2.5-0.36,3.96-1.09,4.38c-0.36,0.22-0.73,0.33-1.09,0.33h-0.22c-0.58-0.31-0.88-1.22-0.88-2.73v-1.97
		c-0.46-1.82-1.15-2.73-2.08-2.73c-0.88,0-1.39-0.73-1.53-2.19c0-1.9,0.8-2.84,2.41-2.84c1.68-0.44,2.52-1.6,2.52-3.5l-0.11-0.98
		c0-4.14-0.11-7.02-0.33-8.64c-0.07-4.39-0.11-6.8-0.11-7.22c0-0.58-0.55-1.28-1.64-2.08c-1.97-0.27-2.95-0.75-2.95-1.42
		c-0.09,0-0.24-0.58-0.44-1.75C18.95,14.84,19.82,14,21.57,14z M24.75,29.53v0.11h0.22v-0.11H24.75z M27.37,43.64v0.22
		c0.02,0.15,0.09,0.22,0.22,0.22c0.15,0,0.22-0.07,0.22-0.22c0-0.15-0.07-0.22-0.22-0.22H27.37z M27.81,40.91v0.11h0.22v-0.11H27.81
		z M28.46,41.56l-0.22,0.33v0.33h0.22c0.15,0,0.22-0.07,0.22-0.22v-0.22C28.68,41.64,28.61,41.56,28.46,41.56z M29.01,38.83v0.33
		c0.15,0,0.22-0.07,0.22-0.22v-0.11H29.01z M29.12,40.03v0.22h0.22v-0.22H29.12z M30.11,40.25v0.22c0.02,0.15,0.09,0.22,0.22,0.22
		c0.15,0,0.22-0.07,0.22-0.22v-0.44h-0.22C30.18,40.05,30.11,40.12,30.11,40.25z M30.98,38.5l0.11,0.55c0,0.15-0.11,0.22-0.33,0.22
		v0.11c0,0.38,0.15,0.64,0.44,0.77h0.11c0-0.05-0.04-0.27-0.11-0.66l0.11-0.55C31.2,38.65,31.09,38.5,30.98,38.5z M30.98,37.52v0.33
		h0.22c0.24-0.22,0.42-0.33,0.55-0.33V37.3C31.29,37.44,31.04,37.52,30.98,37.52z M31.53,40.03l0.11,0.22
		c-0.07,0.13-0.11,0.27-0.11,0.44v0.22h0.11c0.15,0,0.22-0.07,0.22-0.22l-0.11-0.55c0.15,0,0.22-0.07,0.22-0.22V39.7h-0.22
		C31.6,39.7,31.53,39.81,31.53,40.03z M31.86,38.61v0.44c0.22,0.27,0.33,0.49,0.33,0.66h0.11c0.11,0,0.25-0.15,0.44-0.44v-0.55
		c0-0.15-0.11-0.22-0.33-0.22L31.86,38.61z M32.29,37.84v0.11c0,0.07,0.25,0.26,0.77,0.55c0.09-0.11,0.16-0.47,0.22-1.09h-0.55
		C32.62,37.41,32.48,37.55,32.29,37.84z M33.06,36.53v0.22h0.22v-0.22H33.06z M33.71,38.06v0.11h0.22v-0.11H33.71z M34.37,36.53
		v0.22h0.11v-0.22H34.37z M36.01,29.42l0.22,0.11h0.22V29.2h-0.22C36.08,29.22,36.01,29.29,36.01,29.42z"/>
	<path class="st0" d="M54.41,14.14c1.17,0,1.75,0.91,1.75,2.73c0,1.11-0.66,2.06-1.97,2.84c-0.66,0.62-0.98,1.39-0.98,2.3v5.8
		c0,1.48,0.04,3.04,0.11,4.7c-0.07,0.24-0.11,1.26-0.11,3.06c-0.24,0.15-0.42,0.22-0.55,0.22v0.33h0.55v1.42
		c0,0.64-0.04,1.37-0.11,2.19c0,1.37,0.8,2.39,2.41,3.06c0.29,0.33,0.44,0.51,0.44,0.55c-0.36,0.13-0.55,0.31-0.55,0.55l0.11,0.55
		l-0.22,0.11c-0.07-0.13-0.11-0.27-0.11-0.44h-0.22c-0.11,0.02-0.66,0.49-1.64,1.42l0.22,0.33c0,0.15-0.15,0.22-0.44,0.22v0.98
		c0,0.15-0.07,0.22-0.22,0.22c-1.51-0.29-3.77-1.39-6.78-3.28c-2.41-2.5-4.05-4.72-4.92-6.67c-0.8-2.55-1.2-4.67-1.2-6.34
		c0-6.87,3.39-12.09,10.17-15.64C52.59,14.54,54.01,14.14,54.41,14.14z M44.68,31.31v0.11h0.22v-0.11H44.68z M44.68,38.75v0.22h0.11
		v-0.22H44.68z M45.45,33.17v0.22c0,0.04,0.22,0.26,0.66,0.66l0.11-0.22c-0.22-0.29-0.33-0.51-0.33-0.66H45.45z M45.45,34.04v0.22
		h0.22C45.66,34.12,45.59,34.04,45.45,34.04z M45.45,38.2v0.33h0.44v-0.11c0-0.15-0.07-0.22-0.22-0.22H45.45z M45.55,34.81v0.22
		c0.02,0.15,0.09,0.22,0.22,0.22l0.11-0.22c0-0.15-0.07-0.22-0.22-0.22H45.55z M45.66,32.4c0.2,0.36,0.35,0.55,0.44,0.55h0.22v-0.33
		L45.66,32.4z M45.88,35.46v0.22c0.11,0,0.25,0.07,0.44,0.22h0.22c0.15,0,0.22-0.07,0.22-0.22c0-0.15-0.07-0.22-0.22-0.22H45.88z
		 M46.65,34.7h0.22v-0.22C46.72,34.5,46.65,34.57,46.65,34.7z M46.76,31.53v0.33h0.22v-0.33H46.76z M46.98,17.64v0.11h0.22v-0.11
		H46.98z M47.63,33.06c0.02,0.15,0.09,0.22,0.22,0.22l0.11-0.22H47.63z M47.85,32.4v0.11h0.22V32.4H47.85z M48.07,17.2l-0.11,0.55
		v0.44h0.22c0-0.07,0.07-0.36,0.22-0.88V17.2H48.07z M50.04,45.42v0.33h0.33v-0.33H50.04z M50.15,31.75l0.33,0.22l0.11-0.22
		c0-0.15-0.07-0.22-0.22-0.22C50.22,31.55,50.15,31.62,50.15,31.75z M50.26,30.87v0.11h0.22v-0.11H50.26z M51.02,32.29v0.44h0.33
		v-0.44H51.02z M51.13,30.65v0.11h0.22v-0.11H51.13z M51.13,46.07v0.22c0,0.11,0.11,0.22,0.33,0.33h0.11l-0.11-0.55H51.13z
		 M51.46,45.53l-0.11,0.22c0.02,0.15,0.09,0.22,0.22,0.22l0.11-0.22C51.68,45.6,51.61,45.53,51.46,45.53z M51.79,43.34v0.22h0.22
		v-0.22H51.79z M52.23,39.07v0.22h0.22v-0.22H52.23z M54.74,44.87c0.31,0,0.71,0.04,1.2,0.11c0.15-0.07,0.25-0.11,0.33-0.11v0.44
		c0,0.36-0.07,0.55-0.22,0.55c-0.15-0.07-0.26-0.11-0.33-0.11l-0.11,0.22c0.15,0.02,0.22,0.09,0.22,0.22l0.22-0.11h0.11
		c-0.24,1.02-0.71,1.53-1.42,1.53H54.2l-0.55-0.11v-0.11l0.66-0.44v-0.44c0.44-0.05,0.66-0.2,0.66-0.44
		c-0.29-0.47-0.44-0.84-0.44-1.09L54.74,44.87z M54.85,43.01v0.22h0.22v-0.22H54.85z M55.29,46.84v0.22h0.22v-0.22H55.29z
		 M56.16,43.89l0.11,0.22v0.44h-0.11c-0.15,0-0.22-0.07-0.22-0.22v-0.22C55.96,43.96,56.04,43.89,56.16,43.89z M60.43,14.36h0.44
		c1.84,0.18,4.21,1.17,7.11,2.95c1.33,0.97,2.61,2.28,3.83,3.94l-0.11,0.22c0,0.13,0.22,0.71,0.66,1.75v0.33h-0.22
		c0-0.35-0.22-0.56-0.66-0.66l-0.33-0.44c-0.29,0.11-0.44,0.22-0.44,0.33v0.11c0.36,0.33,0.55,0.51,0.55,0.55v0.22h-0.22
		c-0.18,0-0.29-0.15-0.33-0.44h-0.22l-0.55,0.11v0.33c0.35,0,0.6,0.07,0.77,0.22h0.33l0.55-0.33c0.15,0.07,0.25,0.11,0.33,0.11v0.22
		H71.7v0.33c0.02,0.15,0.09,0.22,0.22,0.22h0.22v-0.33h0.22c0,0.27,0.15,0.49,0.44,0.66v0.44h0.22c0-0.07,0.04-0.18,0.11-0.33
		c-0.15-0.24-0.22-0.42-0.22-0.55l0.33-0.22h0.33c0.15,0.47,0.22,0.8,0.22,0.98l-0.44,0.66v0.33h0.22c0.16,0,0.27-0.18,0.33-0.55
		h0.22c0.44,1.79,0.66,3.28,0.66,4.48c0,3.59-0.84,6.69-2.52,9.3c-0.13-0.02-0.42-0.2-0.88-0.55c-0.07,0.15-0.11,0.26-0.11,0.33
		c0,0.22,0.11,0.33,0.33,0.33v0.22c-0.11,0-0.33,0.18-0.66,0.55l-0.11-0.22c0-0.05,0.04-0.27,0.11-0.66l-0.22-0.44
		c0.07-0.4,0.11-0.69,0.11-0.88c-0.15,0-0.22-0.07-0.22-0.22c0-0.18,0.11-0.58,0.33-1.2c-0.15,0-0.22-0.07-0.22-0.22l0.22-0.33
		l-0.11-0.66c0.15-0.36,0.44-0.77,0.88-1.2c0-0.07,0.18-0.15,0.55-0.22c0.02,0.15,0.09,0.22,0.22,0.22c0.07,0,0.33-0.18,0.77-0.55
		h0.11v0.22c-0.36,0.57-0.55,0.89-0.55,0.98c0.07,0.51,0.11,0.8,0.11,0.88h0.55v-0.66c0-0.11,0.11-0.22,0.33-0.33l-0.11-0.22
		c0.22-0.44,0.33-0.69,0.33-0.77c-0.44-0.56-0.66-1.08-0.66-1.53c0.51-0.09,0.77-0.2,0.77-0.33v-0.33h-0.22l-0.77,0.11
		c0-0.07-0.04-0.11-0.11-0.11c-0.2,0.44-0.57,0.8-1.09,1.09c0,0.33-0.15,0.62-0.44,0.88c0-0.07-0.04-0.11-0.11-0.11l0.11-0.22
		c-0.07-0.44-0.18-0.66-0.33-0.66h-0.11c0,0.24-0.11,0.49-0.33,0.77l-0.22-0.11h-0.11c-0.15,1.64-0.22,2.52-0.22,2.63v0.98
		c-0.13,0.16-0.24,0.53-0.33,1.09l-0.33,0.22H69.4v-0.11l0.22-0.44c0-0.07-0.04-0.11-0.11-0.11l0.11-0.55c0-0.33-0.22-0.8-0.66-1.42
		c-0.11,0.29-0.22,0.44-0.33,0.44h-0.55c-0.15,0-0.22-0.07-0.22-0.22c0.11,0,0.22-0.11,0.33-0.33v-0.22c-0.24,0-0.42-0.04-0.55-0.11
		c-0.13,0.07-0.27,0.11-0.44,0.11c-0.24-0.15-0.42-0.22-0.55-0.22c-0.47,0-0.73,0.22-0.77,0.66c-0.46,0.22-0.78,0.33-0.98,0.33
		c-0.29-0.42-0.44-0.71-0.44-0.88h-0.22l-0.33,0.22h-0.22l-0.22-0.11v0.22c0.07,0.42,0.44,0.82,1.09,1.2v0.11
		c-0.29,0.33-0.44,0.51-0.44,0.55c0.11,0,0.22,0.11,0.33,0.33c-0.51,0.35-0.77,0.57-0.77,0.66v0.55c0.22,0.18,0.36,0.66,0.44,1.42
		l0.22,0.11l0.55-1.53c0.2-0.29,0.46-0.44,0.77-0.44c0.16,0,0.53,0.11,1.09,0.33c0.13-0.07,0.27-0.11,0.44-0.11
		c0.15,0.02,0.22,0.09,0.22,0.22v0.11l-0.22,0.33v0.22c0,0.11,0.11,0.22,0.33,0.33c0,0.36-0.26,0.55-0.77,0.55v0.22l0.55,0.11
		c0.07-0.29,0.22-0.44,0.44-0.44v-0.22l-0.11-0.22c0.16,0,0.31-0.36,0.44-1.09h0.11c0.58,0.42,0.88,0.67,0.88,0.77l-0.11,0.66
		l0.22,0.44c-0.15,0.02-0.22,0.09-0.22,0.22v0.22c0.58,0,0.88,0.26,0.88,0.77c0.36,0,0.55,0.07,0.55,0.22l-0.55,0.55h-0.11
		c0-0.22-0.04-0.33-0.11-0.33c-0.29,0-0.44,0.18-0.44,0.55h-0.33v-0.22l0.22-0.33v-0.33l-0.66-0.98h-0.33v0.33
		c0.35,0,0.56,0.29,0.66,0.88c-0.33,0.13-0.58,0.35-0.77,0.66c0.36,0.18,0.55,0.55,0.55,1.09c-1.62,1.26-3.12,2.17-4.48,2.73
		l-0.33-0.77c-0.22,0.04-0.4,0.26-0.55,0.66v0.55c-0.29,0.15-0.55,0.22-0.77,0.22c0-0.15-0.07-0.22-0.22-0.22h-0.22
		c0,0.35-0.4,0.57-1.2,0.66c-0.66-0.16-0.98-0.35-0.98-0.55v-0.11h0.44v-0.44h-0.33l-0.33,0.22h-0.11
		c-0.15-0.51-0.22-0.95-0.22-1.31v-0.77c0.05-0.58,0.31-0.88,0.77-0.88v-0.22l-0.22-0.33c0-0.15,0.18-0.22,0.55-0.22l-0.11-0.22
		c1.02-0.56,1.53-1.84,1.53-3.83c-0.07-0.91-0.11-1.39-0.11-1.42c0.07,0,0.18,0.04,0.33,0.11l0.55-0.11
		c0.15,0.33,0.29,0.51,0.44,0.55h0.22c0.35-0.09,0.6-0.42,0.77-0.98h-0.55c0,0.36-0.07,0.55-0.22,0.55h-0.11v-0.33L63.27,37
		l-0.22-0.77c0.07-0.15,0.11-0.25,0.11-0.33l-0.33-0.22h-0.22l-0.33,0.22l-0.11-0.22l0.22-0.33v-0.22c-0.16,0-0.35-0.18-0.55-0.55
		c-0.22,0-0.33-0.07-0.33-0.22v-0.22l0.44-0.44v-0.11c0-0.04-0.15-0.22-0.44-0.55c0-0.15,0.04-0.22,0.11-0.22l-0.11-1.31v-2.3
		c0-1.9,0.04-4.23,0.11-7c0-1.28-0.62-2.37-1.86-3.28c-0.51-0.6-0.77-1.18-0.77-1.75V16C59.15,14.9,59.63,14.36,60.43,14.36z
		 M59.66,44.43v0.22h0.66v-0.44C60.03,44.36,59.81,44.43,59.66,44.43z M60.65,44.54l-0.11,0.22v0.22h0.55v-0.11
		C61.09,44.76,60.94,44.65,60.65,44.54z M61.3,43.23v0.11c0.02,0.15,0.09,0.22,0.22,0.22l0.11-0.22l-0.22-0.11H61.3z M61.41,46.73
		v0.22h0.22v-0.22H61.41z M61.63,43.01l0.55-0.11h0.33v-0.11c0-0.15-0.07-0.22-0.22-0.22h-0.11C61.81,42.76,61.63,42.9,61.63,43.01z
		 M61.96,45.75v0.11h0.22v-0.11H61.96z M62.07,41.92v0.22h0.33v-0.22H62.07z M62.51,45.09l0.22,0.11h0.22v-0.33h-0.22
		C62.58,44.89,62.51,44.96,62.51,45.09z M62.73,34.15v0.77h0.44l0.11-0.55v-0.22H62.73z M62.84,42.68c0,0.16,0.04,0.31,0.11,0.44
		c-0.07,0.13-0.11,0.27-0.11,0.44h0.22l0.55-0.11v-0.22c-0.24,0-0.42-0.04-0.55-0.11l0.11-0.22v-0.22H62.84z M64.04,42.57h-0.33
		l-0.22-0.11l-0.11,0.22v0.11c0.02,0.15,0.09,0.22,0.22,0.22c0.95-0.16,1.42-0.38,1.42-0.66l-0.22-0.11
		C64.62,42.25,64.37,42.36,64.04,42.57z M63.82,33.61l0.22,0.11h0.33v-0.44h-0.22C64.04,33.28,63.93,33.39,63.82,33.61z
		 M64.04,29.56l-0.11,0.55v0.33h0.33c0-0.24,0.04-0.42,0.11-0.55c-0.07-0.15-0.11-0.25-0.11-0.33H64.04z M64.04,31.31v0.22
		c0,0.11,0.15,0.26,0.44,0.44l0.22-0.33v-0.11c0-0.15-0.07-0.22-0.22-0.22H64.04z M64.04,32.51v0.33h0.66
		c0,0.36,0.11,0.55,0.33,0.55l0.22-0.11c0.07,0,0.11,0.04,0.11,0.11c0.73-0.07,1.09-0.18,1.09-0.33v-0.11
		c0-0.15-0.11-0.22-0.33-0.22c-0.24,0.15-0.46,0.22-0.66,0.22h-0.11l-0.33-0.22H64.7l0.11-0.22c-0.07-0.15-0.11-0.25-0.11-0.33
		l0.33,0.22h0.77v-0.33c-0.13,0-0.31-0.11-0.55-0.33h-0.22c-0.24,0.29-0.49,0.44-0.77,0.44L64.04,32.51z M65.46,36.12l0.11,0.22
		c0,0.11-0.11,0.22-0.33,0.33c-0.11,0-0.22-0.11-0.33-0.33L65.46,36.12z M65.02,43.89v0.33h0.22c0.11,0,0.22-0.11,0.33-0.33H65.02z
		 M65.79,35.79h0.22c0.55,0,0.84,0.11,0.88,0.33c-0.18,0.15-0.33,0.22-0.44,0.22v1.09l0.11,0.22l0.22-0.11h0.33
		c0-0.11,0.4-0.58,1.2-1.42c0.11,0,0.25,0.51,0.44,1.53l-0.22-0.11H68.3c-0.38,0-0.71,0.26-0.98,0.77c-0.58,0-0.88-0.15-0.88-0.44
		l-0.77,0.11c0-0.09-0.18-0.27-0.55-0.55v-0.11c0-0.07,0.4-0.4,1.2-0.98v-0.11c-0.36-0.09-0.55-0.2-0.55-0.33V35.79z M65.24,39.51
		l0.11,0.22l-0.11,0.55h0.55l0.22-0.11c-0.07-0.73-0.18-1.09-0.33-1.09h-0.11C65.46,39.07,65.35,39.22,65.24,39.51z M65.46,29.89
		l-0.11,0.22c0.02,0.15,0.09,0.22,0.22,0.22h0.11v-0.22C65.68,29.96,65.61,29.89,65.46,29.89z M65.57,42.25v0.22l0.44,0.11
		c0.15-0.07,0.25-0.11,0.33-0.11v-0.55c0-0.15-0.07-0.22-0.22-0.22C66.03,41.7,65.84,41.88,65.57,42.25z M65.79,40.61v0.22
		c0,0.11,0.11,0.22,0.33,0.33h0.33l-0.11-0.55H65.79z M66.23,43.23l0.22,0.11c0.15,0,0.22-0.07,0.22-0.22l-0.22-0.11
		C66.3,43.03,66.23,43.1,66.23,43.23z M66.23,44.43v0.11c0.02,0.15,0.09,0.22,0.22,0.22h0.11v-0.11c0-0.15-0.07-0.22-0.22-0.22
		H66.23z M66.45,28.79l-0.11,0.22v0.22h0.44c0.15,0,0.22-0.07,0.22-0.22V28.9L66.45,28.79z M66.88,36.12h0.11
		c0.15,0.02,0.22,0.09,0.22,0.22l-0.11,0.55h-0.22V36.12z M67.32,28.57v0.44h0.11c0.36-0.18,0.55-0.47,0.55-0.88v-0.11h-0.11
		C67.78,28.03,67.59,28.21,67.32,28.57z M67.76,34.59c0.02,0.15,0.09,0.22,0.22,0.22c0.15,0,0.4-0.07,0.77-0.22
		c0.36,0.15,0.62,0.22,0.77,0.22l0.11-0.22v-0.22c-0.36,0-0.55-0.11-0.55-0.33h-0.22c-0.2,0.2-0.57,0.35-1.09,0.44V34.59z
		 M68.09,26.61v0.11h0.22v-0.11H68.09z M68.2,30.98v0.22h0.11v-0.22H68.2z M68.3,39.73v0.33h0.33v-0.33H68.3z M68.63,29.45V30h0.22
		l0.11-0.55H68.63z M68.63,33.17v0.22h0.22C68.85,33.24,68.78,33.17,68.63,33.17z M68.63,37.87h0.22v0.22h-0.22V37.87z M69.18,23.98
		v0.33h0.33v-0.33H69.18z M69.18,40.5h0.11c0.15,0.02,0.22,0.09,0.22,0.22H69.4C69.25,40.71,69.18,40.64,69.18,40.5z M69.4,29.56
		l-0.11,0.22c0.15,0,0.22,0.22,0.22,0.66h0.33C69.78,29.85,69.64,29.56,69.4,29.56z M69.4,32.84l-0.11,0.44h0.33v-0.44H69.4z
		 M69.95,23.87v1.2l-0.55,0.77l0.22,0.11h0.22c0.15,0,0.22-0.07,0.22-0.22l-0.11-0.22c0.29-0.22,0.51-0.33,0.66-0.33v-0.22
		l-0.11-1.09H69.95z M70.49,26.71l-0.11,0.22l0.33,0.22l0.11-0.22L70.49,26.71z M70.6,40.06c0.04,0.29,0.15,0.44,0.33,0.44v0.22
		h-0.11c-0.11,0-0.26-0.15-0.44-0.44C70.4,40.13,70.47,40.06,70.6,40.06z M70.38,41.04h0.11v0.22h-0.11V41.04z M71.04,24.42
		c-0.15,0.33-0.22,0.69-0.22,1.09c0.11,0.29,0.22,0.44,0.33,0.44h0.11v-0.11l-0.22-0.33c0-0.18,0.15-0.29,0.44-0.33v-0.66
		L71.04,24.42z M70.93,37.21v0.66l0.55,0.11v-0.55c0-0.15-0.07-0.22-0.22-0.22H70.93z M71.26,36.12l-0.11,0.22l0.22,0.11l0.11-0.22
		L71.26,36.12z M71.37,26.28l-0.11,0.22v0.11c0,0.11,0.11,0.22,0.33,0.33c0-0.07,0.04-0.11,0.11-0.11
		C71.6,26.46,71.49,26.28,71.37,26.28z M71.59,35.25c-0.15,0.24-0.22,0.46-0.22,0.66h0.33l0.11-0.55L71.59,35.25z M72.13,21.57
		l0.11,0.22l-0.22,0.11l-0.11-0.22L72.13,21.57z M72.79,32.29c0.2,0,0.35,0.33,0.44,0.98c-0.29,0-0.55,0.11-0.77,0.33h-0.22
		c-0.15,0-0.22-0.07-0.22-0.22C72.48,32.66,72.73,32.29,72.79,32.29z M72.02,37.32c0.02,0.15,0.09,0.22,0.22,0.22h0.11v-0.44h-0.11
		C72.1,37.12,72.02,37.2,72.02,37.32z M72.24,36.23l0.11,0.55h0.55v-0.11c-0.22-0.24-0.33-0.46-0.33-0.66h-0.11
		C72.31,36.03,72.24,36.1,72.24,36.23z M72.9,26.5h0.22v-0.22C72.97,26.3,72.9,26.37,72.9,26.5z M73.45,30.54v0.33h0.33v-0.11
		c0-0.15-0.07-0.22-0.22-0.22H73.45z M73.88,32.51v0.33h0.33v-0.33H73.88z"/>
	<path class="st0" d="M92.18,15.12c1.6,0,2.41,0.62,2.41,1.86v1.31c0,0.93-0.69,1.77-2.08,2.52c-0.22,0.53-0.33,0.86-0.33,0.98v0.55
		c0,0.8,0.47,2.37,1.42,4.7l-0.22,0.44c0.44,0,0.77,0.66,0.98,1.97v1.31c0.44,0,0.66,0.07,0.66,0.22v0.22
		c0,0.15-0.11,0.22-0.33,0.22c-0.29-0.02-0.62-0.35-0.98-0.98h-0.22v0.55c0.18,0,0.44,0.29,0.77,0.88l0.22-0.11
		c0.15,0.24,0.22,0.42,0.22,0.55c-0.11,0.36-0.33,0.55-0.66,0.55c0-0.15-0.07-0.22-0.22-0.22h-0.33c-0.33,0.51-0.88,0.77-1.64,0.77
		c0,0.11-0.11,0.22-0.33,0.33h-0.11c0.22-0.8,0.4-1.2,0.55-1.2l0.33,0.22h0.11c0.13,0,0.38-0.36,0.77-1.09
		c0.15,0,0.22-0.07,0.22-0.22c-0.09-0.36-0.2-0.55-0.33-0.55h-0.33l-0.44,0.33h-0.33c-0.15,0-0.22-0.07-0.22-0.22l0.33-0.44
		c-0.15,0-0.22-0.07-0.22-0.22l0.22-0.11h0.22c0.22,0,0.33,0.15,0.33,0.44c0.15,0,0.22-0.07,0.22-0.22v-0.55
		c-0.18,0-0.47-0.07-0.88-0.22l-0.66,0.11V30c0.36,0.02,0.55,0.13,0.55,0.33c-0.13,0-0.67,0.18-1.64,0.55l-0.55-0.11v0.44h0.88
		c0.09,0,0.27,0.18,0.55,0.55v0.44l-0.22,0.33l0.11,0.66c-0.15,0.07-0.26,0.11-0.33,0.11v0.44c0.22,0,0.36,0.18,0.44,0.55
		l-0.22,0.11c-0.15-0.07-0.26-0.11-0.33-0.11l-0.33,0.66v0.33c0.29,0.04,0.44,0.15,0.44,0.33v0.22h-0.11c-0.15,0-0.4-0.25-0.77-0.77
		v-0.11l0.22-0.33v-0.22l-0.77,0.11h-0.11l-0.22-0.11v0.11c0.04,0.22,0.22,0.51,0.55,0.88v0.22c0,0.15-0.07,0.22-0.22,0.22
		c-0.24-0.15-0.42-0.22-0.55-0.22l-0.11,0.22c0.11,0,0.25,0.15,0.44,0.44c-0.36,0.38-0.55,0.71-0.55,0.98
		c0.44,0.24,0.69,0.49,0.77,0.77c-0.07,0.13-0.11,0.27-0.11,0.44c0.02,0.15,0.09,0.22,0.22,0.22h0.22c0.15,0,0.22-0.07,0.22-0.22
		c-0.15,0-0.22-0.07-0.22-0.22v-0.11l0.22-0.33c-0.66-0.4-0.98-0.66-0.98-0.77L89,36.89h0.11l0.33,0.22h0.33
		c0.2-0.29,0.49-0.55,0.88-0.77v-0.55h0.11l0.44,0.44c0-0.15,0.11-0.22,0.33-0.22V35.9l-0.33-0.44l0.22-0.11l0.22,0.11
		c1.02-0.46,1.53-0.86,1.53-1.2c-0.07-0.13-0.11-0.27-0.11-0.44c0.51-0.2,0.77-0.35,0.77-0.44l-0.11-0.22l0.22-0.11
		c0.15,0.02,0.22,0.09,0.22,0.22v0.55c0,0.15-0.22,0.22-0.66,0.22v0.44c0,0.07,0.25,0.33,0.77,0.77c0.13-0.07,0.56-0.15,1.31-0.22
		c0,0.11,0.11,0.22,0.33,0.33c0.15,0,0.22-0.07,0.22-0.22v-0.55c-0.29,0-0.44-0.11-0.44-0.33c0.07-0.15,0.11-0.25,0.11-0.33
		l-0.22-0.11h-0.11c-0.05,0-0.38,0.33-0.98,0.98c-0.15,0-0.22-0.07-0.22-0.22v-0.11c0.36-0.33,0.55-0.55,0.55-0.66l-0.11-0.55
		c0.16,0,0.38-0.25,0.66-0.77h0.33c0.71,2.13,1.26,3.52,1.64,4.16c-0.15,0.07-0.26,0.11-0.33,0.11v0.88l0.11,0.22
		c-0.29,0-0.44,0.07-0.44,0.22h0.22c0.18-0.15,0.33-0.22,0.44-0.22c0.38,0,0.6,0.36,0.66,1.09c0,0.15-0.18,0.22-0.55,0.22
		c0.11,0.95,0.29,1.42,0.55,1.42c-0.62,1.99-1.02,3.01-1.2,3.06h-0.22c-0.15,0-0.26-0.4-0.33-1.2h-0.11c0,0.22-0.36,0.33-1.09,0.33
		c0-0.15-0.07-0.22-0.22-0.22v0.11l0.44,0.66v0.22c-0.29,0.24-0.44,0.46-0.44,0.66c0.29,0,0.47,0.4,0.55,1.2h0.11
		c0-0.13,0.25-0.35,0.77-0.66l0.11,0.22c-0.16,0.8-0.35,1.2-0.55,1.2c-0.29,0.4-0.66,0.73-1.09,0.98c-0.22,0.66-0.51,0.98-0.88,0.98
		h-0.44v-0.22h-0.11c-0.15,0-0.22,0.11-0.22,0.33h-1.09l-0.33-0.22l-0.33,0.22c-1.97-0.07-2.95-0.55-2.95-1.42
		c-0.2-0.27-0.67-1.48-1.42-3.61c0.13-0.07,0.27-0.11,0.44-0.11V42.9c0-0.15-0.07-0.22-0.22-0.22c-0.15,0.07-0.26,0.11-0.33,0.11
		c-1.31-3.55-1.97-5.45-1.97-5.69c0.11,0,0.22-0.11,0.33-0.33v-0.11c-0.35-0.66-0.64-0.98-0.88-0.98l-4.27-12.58
		c-0.49-0.84-1.51-1.75-3.06-2.73c-0.36-0.53-0.55-1.15-0.55-1.86v-0.55c0.02-0.15,0.09-0.22,0.22-0.22l-0.11-0.55v-0.22h0.11
		l0.22,0.11c0-0.15,0.15-0.22,0.44-0.22v-0.22h-0.33v-0.22c0.35,0,0.67-0.25,0.98-0.77c0.75-0.15,1.7-0.25,2.84-0.33
		c0.46,0.07,0.97,0.11,1.53,0.11h0.77c0.22,0,0.33,0.26,0.33,0.77l0.55-0.11v-0.44l-0.11-0.22l0.22-0.11h1.75
		c0.11,0,0.22,0.22,0.33,0.66c0.22,0,0.33,0.07,0.33,0.22v0.11c-0.44,0.22-0.66,0.69-0.66,1.42v0.33h0.33l0.44-0.77
		c0.13,0.29,0.35,0.47,0.66,0.55c0.15-0.2,0.33-0.64,0.55-1.31l-0.22-0.11h-0.11l-0.33,0.22c-0.15,0-0.22-0.07-0.22-0.22
		c0.09,0,0.27-0.18,0.55-0.55c0-0.15-0.07-0.22-0.22-0.22l-0.33,0.22c-0.15,0-0.22-0.07-0.22-0.22
		C86.71,15.36,88.53,15.18,92.18,15.12z M76.86,18.51v0.33h0.22v-0.33H76.86z M77.85,16.32l0.11,0.22v0.11
		c-0.2,0.31-0.46,0.64-0.77,0.98c0.07,0.15,0.11,0.26,0.11,0.33h0.55c0.44-0.51,0.66-1.09,0.66-1.75l-0.22-0.11L77.85,16.32z
		 M79.16,16.32v0.33c0.15,0,0.22-0.07,0.22-0.22L79.16,16.32z M79.93,15.78v0.33c0.31,0.51,0.53,0.77,0.66,0.77h0.33v-0.11
		c0-0.4-0.26-0.73-0.77-0.98H79.93z M80.91,17.64l-0.11,0.22l0.22,0.11h0.11v-0.11C81.13,17.71,81.06,17.64,80.91,17.64z
		 M81.24,16.65v0.33h0.44c-0.07-0.15-0.11-0.25-0.11-0.33H81.24z M82.11,15.67L82,15.89v0.22l0.11,0.55h0.44v-0.44
		C82.37,15.85,82.22,15.67,82.11,15.67z M82.66,19.61l0.22,0.11h0.11v-0.33h-0.11C82.73,19.41,82.66,19.48,82.66,19.61z
		 M82.88,30.76c0.02,0.15,0.09,0.22,0.22,0.22h0.22v-0.22c0-0.15-0.07-0.22-0.22-0.22C82.95,30.56,82.88,30.63,82.88,30.76z
		 M82.99,18.62v0.33h0.44v-0.33H82.99z M83.43,17.31v0.33c0.02,0.15,0.09,0.22,0.22,0.22l0.11-0.22v-0.55h-0.11
		C83.5,17.11,83.43,17.18,83.43,17.31z M83.86,16.65v0.22h0.22C84.08,16.73,84.01,16.65,83.86,16.65z M84.08,18.4
		c0.02,0.15,0.09,0.22,0.22,0.22h0.11V18.4H84.08z M84.41,17.53l-0.11,0.22v0.44h0.33c0.15,0,0.22-0.07,0.22-0.22v-0.11
		C84.85,17.75,84.7,17.64,84.41,17.53z M86.05,30c-0.35,0-0.75-0.18-1.2-0.55l-0.22,0.11c-0.15-0.07-0.26-0.11-0.33-0.11
		c0,0.13,0.29,0.42,0.88,0.88c0,0.29,0.18,0.44,0.55,0.44c0,0.44,0.07,0.66,0.22,0.66c0.07,0,0.18-0.04,0.33-0.11l0.66,0.11V31.2
		c0-0.11-0.15-0.25-0.44-0.44l0.11-0.22l-0.11-0.44c0.11-0.29,0.22-0.44,0.33-0.44c0.24,0.26,0.56,0.51,0.98,0.77
		c0,0.11,0.07,0.26,0.22,0.44c-0.07,0-0.36,0.29-0.88,0.88c0.02,0.15,0.09,0.22,0.22,0.22h0.11c0.11,0,0.22-0.22,0.33-0.66
		c0.13-0.07,0.27-0.11,0.44-0.11c0.24,0.15,0.46,0.22,0.66,0.22v-0.33l-0.77-0.77l0.11-0.66c-0.07-0.15-0.11-0.25-0.11-0.33h-0.22
		v0.11c0.07,0.15,0.11,0.26,0.11,0.33h-0.11c-0.36-0.16-0.55-0.35-0.55-0.55c0.15-0.33,0.29-0.51,0.44-0.55
		c0.25,0.29,0.47,0.44,0.66,0.44v-0.55c-0.18,0-0.36-0.07-0.55-0.22h-0.22c-0.51,0-0.77,0.26-0.77,0.77
		C86.73,29.12,86.43,29.41,86.05,30z M84.52,31.86v0.11c0,0.13,0.18,0.24,0.55,0.33c0.15-0.07,0.25-0.11,0.33-0.11v-0.11
		c0-0.09-0.18-0.27-0.55-0.55C84.74,31.53,84.63,31.64,84.52,31.86z M84.85,32.84l0.11,0.55v0.33h0.33l0.11-0.55l-0.11-0.77h-0.11
		C85.1,32.4,84.99,32.55,84.85,32.84z M85.07,23.54v0.22h0.22v-0.22H85.07z M85.5,32.18c0.15,0.27,0.22,0.57,0.22,0.88v0.22h0.22
		c0-0.38,0.18-0.75,0.55-1.09v-0.22h-0.77C85.58,31.98,85.5,32.06,85.5,32.18z M85.72,34.7c0,0.16-0.04,0.31-0.11,0.44l0.44,0.22
		l-0.11-0.66H85.72z M85.72,34.04c0.36,0.44,0.62,0.66,0.77,0.66c0.29-0.11,0.44-0.22,0.44-0.33c-0.07-0.51-0.18-0.77-0.33-0.77
		C86.01,33.79,85.72,33.93,85.72,34.04z M85.72,38.31v0.22h0.77V38.2L85.72,38.31z M85.83,28.25c0,0.38,0.18,0.67,0.55,0.88
		c0-0.07,0.04-0.11,0.11-0.11c0-0.07-0.04-0.11-0.11-0.11c0.15-0.55,0.22-0.88,0.22-0.98l-0.33-0.22
		C86.18,27.7,86.03,27.88,85.83,28.25z M85.94,30.43h0.11v0.22h-0.11V30.43z M86.38,18.18v0.22h0.33c0-0.15-0.07-0.22-0.22-0.22
		H86.38z M86.93,35.46l0.11,0.55c-0.15,0.02-0.22,0.09-0.22,0.22v0.22h0.33c0.13-0.02,0.35-0.31,0.66-0.88
		c-0.11-0.29-0.22-0.44-0.33-0.44h-0.22C87.14,35.14,87.04,35.25,86.93,35.46z M86.93,18.95c0.09,0.36,0.2,0.55,0.33,0.55h0.33
		l0.11-0.44l-0.22-0.44L86.93,18.95z M87.8,38.53v0.22h0.11l0.44-0.22c0.15,0.07,0.25,0.11,0.33,0.11l0.22-0.33
		c0-0.15-0.07-0.22-0.22-0.22C88.09,38.18,87.8,38.33,87.8,38.53z M87.91,17.75v0.22h0.33v-0.22H87.91z M87.91,32.18v0.11h0.22
		v-0.11H87.91z M88.02,16.54v0.22h0.22v-0.22H88.02z M88.02,27.81v0.11c0.02,0.15,0.09,0.22,0.22,0.22
		c0.11-0.36,0.36-0.55,0.77-0.55v-0.33C88.82,27.26,88.49,27.44,88.02,27.81z M88.02,32.73v0.11h0.22v-0.11H88.02z M88.02,36.12
		v0.11h0.22v-0.11H88.02z M88.24,34.92v0.22c0.02,0.15,0.09,0.22,0.22,0.22h0.22v-0.11c-0.07-0.15-0.11-0.25-0.11-0.33H88.24z
		 M88.46,33.61v0.11h0.22v-0.11H88.46z M88.46,38.96c0.02,0.15,0.09,0.22,0.22,0.22l0.11-0.22H88.46z M89.55,27.37v0.88l0.22,0.33
		c0,0.15-0.11,0.22-0.33,0.22c-0.15-0.07-0.26-0.11-0.33-0.11v0.11l0.22,0.33c-0.51,0.26-0.77,0.62-0.77,1.09v0.33H89
		c0.15,0,0.25-0.36,0.33-1.09c0.11,0,0.29-0.15,0.55-0.44c0.15,0.24,0.22,0.42,0.22,0.55h0.33c0.15,0,0.22-0.07,0.22-0.22
		c0-0.11-0.26-0.36-0.77-0.77v-0.11l0.22-0.33C89.81,27.63,89.62,27.37,89.55,27.37z M88.57,43.45v0.11h0.22v-0.11H88.57z
		 M88.79,44.21l-0.11,0.22v0.11h0.11c0.15,0,0.22-0.07,0.22-0.22L88.79,44.21z M89.44,42.79v0.33h0.22v-0.33H89.44z M89.66,40.71
		c0.11,0.29,0.22,0.44,0.33,0.44h0.44c0-0.05,0.04-0.27,0.11-0.66l-0.22-0.11h-0.44C89.73,40.39,89.66,40.5,89.66,40.71z
		 M89.77,31.64c0.22,0.66,0.33,1.28,0.33,1.86h-0.33v0.44h0.44c0-0.29,0.07-0.44,0.22-0.44c0-0.31-0.04-0.6-0.11-0.88
		c0.15-0.55,0.22-0.84,0.22-0.88l-0.22-0.11H89.77z M89.77,41.7v0.33c0.02,0.15,0.09,0.22,0.22,0.22l0.22-0.33V41.7H89.77z
		 M90.1,42.79l-0.33,0.55v0.11c0.02,0.15,0.09,0.22,0.22,0.22h0.33c0.11,0,0.22-0.11,0.33-0.33v-0.22
		C90.64,42.96,90.46,42.85,90.1,42.79z M89.99,37.54c0.02,0.15,0.09,0.22,0.22,0.22h0.22c0.15,0,0.22-0.07,0.22-0.22v-0.11
		c0-0.15-0.07-0.22-0.22-0.22h-0.11C90.21,37.21,90.1,37.32,89.99,37.54z M90.21,47.93v0.11h0.22v-0.11H90.21z M90.32,39.4v0.11
		l0.22,0.77h0.55l0.11-0.44l-0.55-0.44H90.32z M90.64,27.7l-0.22,0.33v0.11c0.15,0.18,0.22,0.33,0.22,0.44v0.33l0.33,0.22h0.11
		c0.22-0.15,0.47-0.25,0.77-0.33c0-0.42-0.36-0.75-1.09-0.98C90.75,27.74,90.72,27.7,90.64,27.7z M90.54,29.89v0.33h0.33v-0.33
		H90.54z M90.64,22.01v0.11h0.22v-0.11H90.64z M90.75,41.7v0.11h0.22c0.15,0,0.22-0.07,0.22-0.22l-0.22-0.11
		C90.83,41.5,90.75,41.57,90.75,41.7z M91.08,44.11c0.15,0.02,0.22,0.09,0.22,0.22c-0.13,0.07-0.31,0.11-0.55,0.11
		c0,0.44,0.18,0.66,0.55,0.66v-0.11l-0.11-0.22c0.09,0,0.27-0.22,0.55-0.66V44c0-0.15-0.07-0.22-0.22-0.22h-0.11
		C91.3,43.78,91.19,43.89,91.08,44.11z M91.08,37.43c0.33-0.13,0.58-0.35,0.77-0.66c0-0.15-0.07-0.22-0.22-0.22
		c-0.44,0.2-0.66,0.49-0.66,0.88H91.08z M91.85,39.62c0,0.24-0.29,0.57-0.88,0.98v0.11c0.02,0.15,0.09,0.22,0.22,0.22h0.33
		c0-0.2,0.29-0.49,0.88-0.88v-0.11c0-0.11-0.11-0.22-0.33-0.33H91.85z M91.08,26.06v0.33h0.44v-0.33H91.08z M91.08,38.31v0.33
		c0,0.15,0.11,0.22,0.33,0.22l0.22-0.11c0.15,0.07,0.25,0.11,0.33,0.11v-0.55c-0.07,0-0.18,0.04-0.33,0.11L91.08,38.31z
		 M91.19,30.76h0.11v0.22h-0.11V30.76z M91.41,24.31v0.33h0.33v-0.33H91.41z M91.63,37.65v0.22h0.22v-0.22H91.63z M92.29,35.9
		l0.11,0.55c-0.11,0-0.22,0.11-0.33,0.33c0.02,0.15,0.09,0.22,0.22,0.22h0.22c0.09,0,0.27-0.18,0.55-0.55v-0.11
		c-0.2-0.44-0.35-0.66-0.44-0.66H92.5C92.36,35.7,92.29,35.77,92.29,35.9z M93.27,35.14c0,0.22,0.04,0.33,0.11,0.33l-0.11,0.55v0.77
		c-0.66,0.71-0.98,1.15-0.98,1.31c0.07,0,0.11,0.04,0.11,0.11c0.24-0.15,0.46-0.22,0.66-0.22c0.29,0.29,0.55,0.44,0.77,0.44v-0.11
		l-0.55-0.77v-0.33L93.38,37l0.22,0.11h0.33v-0.66l0.55-0.44V35.9c-0.66-0.11-0.98-0.33-0.98-0.66v-0.11H93.27z M92.39,46.4
		l-0.11,0.22l0.22,0.11l0.11-0.22L92.39,46.4z M92.39,38.53v0.44h0.11c0.15,0,0.22-0.07,0.22-0.22v-0.22H92.39z M92.39,40.71v0.22
		h0.44V40.5h-0.22C92.47,40.51,92.39,40.59,92.39,40.71z M92.5,41.37c0.02,0.15,0.09,0.22,0.22,0.22v-0.44
		C92.58,41.17,92.5,41.24,92.5,41.37z M92.61,28.03v0.22c0,0.11,0.29,0.26,0.88,0.44c0.09,0.36,0.2,0.55,0.33,0.55
		c0.11,0,0.22-0.11,0.33-0.33c-0.57-0.58-0.89-0.88-0.98-0.88H92.61z M93.38,29.56v0.11c0.02,0.15,0.09,0.22,0.22,0.22l0.11-0.22
		v-0.33H93.6C93.45,29.36,93.38,29.43,93.38,29.56z M93.49,45.09v0.66h0.33c0.24-0.22,0.42-0.33,0.55-0.33V45.2
		C94.31,45.2,94.02,45.16,93.49,45.09z M93.71,42.14v0.22l0.55,0.11v-0.33H93.71z M93.71,46.95h0.33c0.51-0.18,0.77-0.36,0.77-0.55
		c-0.11-0.29-0.22-0.44-0.33-0.44C93.96,46.18,93.71,46.51,93.71,46.95z M93.82,47.39v0.11c0.02,0.15,0.09,0.22,0.22,0.22l0.11-0.22
		v-0.11H93.82z M94.04,40.06l-0.11,0.22v0.22h0.33v-0.22C94.25,40.13,94.18,40.06,94.04,40.06z M94.47,40.82h0.22v-0.22
		C94.55,40.62,94.47,40.7,94.47,40.82z M94.58,36.56v0.11h0.22v-0.11H94.58z M94.91,37.21c-0.22,0.69-0.33,1.09-0.33,1.2h0.11
		c0.15-0.07,0.25-0.11,0.33-0.11c0.16,0.44,0.27,0.66,0.33,0.66l0.44-0.11L96,38.96c0.13-0.07,0.27-0.11,0.44-0.11h0.11l0.33,0.22
		c0.15,0,0.22-0.07,0.22-0.22v-0.11c0-0.13-0.58-0.27-1.75-0.44c-0.22-0.15-0.33-0.29-0.33-0.44l0.11-0.55L94.91,37.21z
		 M95.24,41.37c0,0.15-0.11,0.22-0.33,0.22v0.11c0.02,0.15,0.09,0.22,0.22,0.22h0.11c0-0.22,0.11-0.33,0.33-0.33v-0.22H95.24z
		 M95.13,36.34l-0.11,0.22v0.11h0.11c0.15,0,0.22-0.07,0.22-0.22L95.13,36.34z M95.57,43.78h0.11c0.15,0.02,0.22,0.09,0.22,0.22
		v0.22c0,0.15-0.07,0.22-0.22,0.22c-0.15,0-0.22-0.11-0.22-0.33C95.53,43.96,95.57,43.85,95.57,43.78z M95.57,40.5v0.22h0.33
		c0-0.15-0.07-0.22-0.22-0.22H95.57z M95.68,37.54c0.15,0,0.22,0.11,0.22,0.33h0.22v-0.55h-0.22
		C95.75,37.34,95.68,37.42,95.68,37.54z M95.89,39.18v0.88l0.55-0.55l0.11,0.22v0.44l-0.11,0.55c0.05,0,0.27,0.04,0.66,0.11
		l0.11-0.22V40.5l-0.22-0.33l0.22-0.33C96.86,39.4,96.42,39.18,95.89,39.18z M96,36.34v0.22c0,0.11,0.11,0.22,0.33,0.33
		c0.15,0,0.22-0.07,0.22-0.22v-0.55C96.31,36.27,96.13,36.34,96,36.34z M102.57,15.23h0.22c1.26,0,2.13,0.36,2.63,1.09
		c5.03,14.91,7.55,22.71,7.55,23.41c0,0.58-0.18,1.24-0.55,1.97l0.11,0.22c-0.73,2.73-1.24,4.38-1.53,4.92v0.11h-0.11l-1.42-0.98
		v-0.11c0-0.18,0.15-0.29,0.44-0.33v-0.22l-0.22-0.33c-0.36,0.22-0.73,0.33-1.09,0.33h-0.11c-0.15,0-0.22-0.07-0.22-0.22
		c0.18-0.15,0.33-0.22,0.44-0.22v-0.22c0-0.15-0.07-0.22-0.22-0.22c-0.07,0-0.36,0.07-0.88,0.22l-0.11-0.22v-0.11
		c0-0.16,0.33-0.27,0.98-0.33v-0.22c0-0.15-0.07-0.22-0.22-0.22h-0.44c-0.66,0.26-1.02,0.51-1.09,0.77c-0.16,0-0.49,0.26-0.98,0.77
		v0.11c0,0.11,0.15,0.26,0.44,0.44h0.44c0-0.22,0.07-0.33,0.22-0.33l0.11,0.22v0.11l-0.22,0.33c0.11,0,0.22,0.11,0.33,0.33
		c-0.15,0.02-0.22,0.09-0.22,0.22l0.11,0.55c-0.07,0-0.11,0.04-0.11,0.11c0.8,0.11,1.2,0.26,1.2,0.44
		c-0.07,0.22-0.29,0.33-0.66,0.33c-0.15-0.07-0.26-0.11-0.33-0.11v0.11c0.07,0.15,0.11,0.25,0.11,0.33h-1.64
		c-1,0-1.77-0.66-2.3-1.97c-0.66-1.7-1.28-3.55-1.86-5.58c-0.15-0.29-0.62-1.75-1.42-4.38h0.44v-0.22c-0.22,0-0.33-0.18-0.33-0.55
		h-0.11l-0.22,0.11c-0.29-0.58-0.44-1.06-0.44-1.42c0.07,0,0.11-0.04,0.11-0.11c-0.33,0-1.02-1.9-2.08-5.69
		c-0.22-0.38-0.33-0.89-0.33-1.53v-0.77c0-0.15,0.11-0.22,0.33-0.22v-0.22L97.1,25.4c0.66-2.83,1.42-5.12,2.3-6.89
		c0.31-2.11,1-3.17,2.08-3.17C101.86,15.27,102.22,15.23,102.57,15.23z M97.43,27.37c0.02,0.15,0.09,0.22,0.22,0.22h0.22v-0.44
		h-0.22C97.5,27.17,97.43,27.24,97.43,27.37z M97.54,24.42v0.22c0.02,0.15,0.09,0.22,0.22,0.22c0.15,0,0.22-0.07,0.22-0.22
		l-0.33-0.22H97.54z M97.64,28.25c0,0.58,0.22,0.88,0.66,0.88c0.05,0.36,0.16,0.55,0.33,0.55c0.15,0,0.22-0.07,0.22-0.22
		c-0.27-0.88-0.46-1.31-0.55-1.31L97.64,28.25z M98.08,25.4v0.22c0.02,0.15,0.09,0.22,0.22,0.22h0.22c0-0.07,0.04-0.18,0.11-0.33
		c-0.07-0.15-0.11-0.25-0.11-0.33H98.3C98.15,25.2,98.08,25.27,98.08,25.4z M98.19,26.39v0.11c0.02,0.15,0.09,0.22,0.22,0.22
		l0.11-0.22l-0.22-0.11H98.19z M99.39,29.12l0.22,0.11h0.11l0.44-0.33l0.33,0.22h0.11v-0.11c0-0.18-0.15-0.29-0.44-0.33
		C99.65,28.85,99.39,28.99,99.39,29.12z M100.05,30.11v0.33h0.22v-0.33H100.05z M100.27,26.17v0.22h0.22v-0.22H100.27z
		 M101.36,28.25v0.44h0.22v-0.44H101.36z M103.11,38.42l0.22,0.11l0.11-0.22V38.2h-0.11C103.19,38.22,103.11,38.29,103.11,38.42z
		 M103.44,32.95v0.22c0.02,0.15,0.09,0.22,0.22,0.22l0.11-0.22v-0.22H103.44z M103.66,35.25v0.44h0.22v-0.44H103.66z M103.88,28.68
		v0.22c0.15,0,0.22-0.07,0.22-0.22H103.88z M103.99,37l-0.11,0.22v0.11h0.11c0.15,0,0.22-0.07,0.22-0.22L103.99,37z M103.99,41.04
		v0.11c0.02,0.15,0.09,0.22,0.22,0.22l0.22-0.44l-0.22-0.11C104.06,40.84,103.99,40.92,103.99,41.04z M104.21,39.07v0.33h0.22
		c0.15,0,0.22-0.07,0.22-0.22v-0.33h-0.22C104.28,38.87,104.21,38.95,104.21,39.07z M104.32,39.62l-0.11,0.22
		c0.02,0.15,0.09,0.22,0.22,0.22l0.11-0.22C104.54,39.69,104.46,39.62,104.32,39.62z M104.21,45.86v0.22h0.33v-0.22H104.21z
		 M104.75,43.23v0.33h0.33v-0.33H104.75z M104.97,19.82l-0.11,0.22v0.11h0.11c0.15,0,0.22-0.07,0.22-0.22L104.97,19.82z
		 M104.86,40.5v0.11c0.15,0.18,0.22,0.33,0.22,0.44h0.33l0.22-0.11c-0.15-0.44-0.29-0.66-0.44-0.66h-0.11
		C104.94,40.3,104.86,40.37,104.86,40.5z M105.3,29.89V30h0.66c0.6-1.02,1.04-1.53,1.31-1.53v-0.44c-0.11,0-0.26-0.07-0.44-0.22
		h-0.22c-0.09,0-0.31,0.51-0.66,1.53C105.67,29.43,105.45,29.61,105.3,29.89z M105.3,31.31h0.33c0.15,0,0.22-0.11,0.22-0.33
		c-0.07-0.15-0.11-0.25-0.11-0.33h-0.11C105.41,30.73,105.3,30.94,105.3,31.31z M105.3,33.61v0.11h0.22v-0.11H105.3z M105.3,39.29
		v0.44h0.11c0.15,0,0.22-0.07,0.22-0.22v-0.22H105.3z M105.3,45.96v0.11h0.22v-0.11H105.3z M105.41,32.07v0.33
		c0.36,0,0.55,0.07,0.55,0.22l-0.11,0.66c0.22,0,0.47,0.15,0.77,0.44c0.22-0.29,0.33-0.51,0.33-0.66l-0.77-1.2h-0.55
		C105.48,31.87,105.41,31.95,105.41,32.07z M105.63,25.18v0.22h0.22c0.15,0,0.22-0.07,0.22-0.22H105.63z M105.85,46.4l0.22,0.11
		h0.22c0.15,0,0.22-0.07,0.22-0.22v-0.11l-0.11-0.22C106.07,46.11,105.88,46.26,105.85,46.4z M106.39,40.28l-0.11,0.55
		c0.29,0,0.44,0.07,0.44,0.22c-0.07,0.4-0.11,0.73-0.11,0.98c0.15,0.02,0.22,0.09,0.22,0.22v0.22c-0.44,0.29-0.66,0.66-0.66,1.09
		c0.07,0.15,0.11,0.26,0.11,0.33h0.22c0-0.2,0.33-0.78,0.98-1.75c-0.07-0.13-0.11-0.27-0.11-0.44l0.11-0.22
		c-0.36,0-0.55-0.07-0.55-0.22l0.22-0.55c-0.36,0-0.55-0.15-0.55-0.44H106.39z M106.72,25.51v0.33h0.33v-0.33H106.72z M106.72,31.2
		v1.2l0.55,0.11c0-0.16,0.04-0.31,0.11-0.44c-0.15,0-0.22-0.07-0.22-0.22l0.44-0.44c0-0.15-0.07-0.22-0.22-0.22H106.72z
		 M107.38,29.56c0,0.57,0.22,0.93,0.66,1.09c0.15,0,0.22-0.07,0.22-0.22c-0.22-0.07-0.33-0.29-0.33-0.66l0.22-0.33v-0.11h-0.11
		C107.87,29.49,107.65,29.56,107.38,29.56z M107.6,33.5c0.02,0.15,0.09,0.22,0.22,0.22l0.11-0.22v-0.22h-0.11
		C107.67,33.3,107.6,33.37,107.6,33.5z M107.93,31.53v0.98c0.02,0.15,0.09,0.22,0.22,0.22h0.22c0.15,0,0.22-0.07,0.22-0.22
		l-0.11-0.22c0.36-0.09,0.55-0.2,0.55-0.33c-0.38-0.29-0.71-0.44-0.98-0.44H107.93z M108.36,42.36l-0.11,0.22
		c0.07,0.15,0.11,0.26,0.11,0.33h0.44v-0.44L108.36,42.36z M108.8,46.07h0.33c0,0.15,0.22,0.36,0.66,0.66
		c0,0.11-0.11,0.22-0.33,0.33c0-0.15-0.07-0.22-0.22-0.22h-0.11l-0.33,0.22c-0.11,0-0.22-0.11-0.33-0.33v-0.11
		C108.69,46.38,108.8,46.2,108.8,46.07z M108.69,30.76v0.11h0.11c0.15,0,0.22-0.07,0.22-0.22v-0.11h-0.11
		C108.76,30.56,108.69,30.63,108.69,30.76z M109.02,33.28l-0.33,0.44v0.11h0.22c0.11,0,0.22-0.15,0.33-0.44L109.02,33.28z
		 M109.02,47.93h0.22c0,0.15-0.07,0.22-0.22,0.22V47.93z M110.33,47.5h0.22v0.11c-0.07,0.22-0.29,0.33-0.66,0.33
		C109.89,47.82,110.04,47.68,110.33,47.5z M119.19,14.9c2.48,0.09,3.72,0.49,3.72,1.2c0.29,0.29,0.44,0.69,0.44,1.2
		c0,1.33-0.58,2.35-1.75,3.06h-0.33v-0.22h-0.22v0.22h0.22c0,0.09-0.18,0.24-0.55,0.44c-0.15-0.07-0.26-0.11-0.33-0.11
		c0,0.13-0.33,0.71-0.98,1.75c-0.36,0.64-1.06,3.37-2.08,8.2c-0.35,1.17-0.97,1.75-1.86,1.75c-1.2,0-2.26-1.79-3.17-5.36v-0.66
		l0.88-4.7c0-0.49-0.58-1-1.75-1.53c-0.8-0.97-1.2-1.66-1.2-2.08c0.29-2.04,1.31-3.06,3.06-3.06h3.5
		C117.55,15.01,118.35,14.98,119.19,14.9z M110.55,46.18v0.22h0.11v-0.22H110.55z M111.1,42.68v0.22h0.33v-0.22H111.1z
		 M111.43,41.59l-0.11,0.22v0.33h0.22c0.15,0,0.22-0.07,0.22-0.22C111.75,41.81,111.64,41.7,111.43,41.59z M111.64,43.56v0.22h0.11
		v-0.22H111.64z M112.08,40.61v0.22h0.11v-0.22H112.08z M112.3,16.43l-0.11,0.22c0.02,0.15,0.09,0.22,0.22,0.22l0.11-0.22
		C112.52,16.51,112.45,16.43,112.3,16.43z M117.33,21.25c0.22,0,0.33,0.15,0.33,0.44h0.22l0.55-0.11v-0.33
		c-0.36,0-0.55-0.07-0.55-0.22l0.11-0.55l-0.22-0.11C117.55,20.37,117.4,20.66,117.33,21.25z M118.21,19.06v0.22
		c0.2,0.44,0.35,0.66,0.44,0.66h0.22v-0.66c-0.11,0-0.26-0.07-0.44-0.22H118.21z M121.38,19.17v0.11h0.11
		c0.15,0,0.22-0.07,0.22-0.22v-0.55C121.49,18.58,121.38,18.8,121.38,19.17z"/>
	<path class="st0" d="M130.18,27.67c0.75,0,1.95,1.17,3.61,3.5l-0.11,0.98c0.58,0.24,0.88,0.64,0.88,1.2l-0.22,5.91l0.22,2.08
		c-0.13,0.07-0.27,0.11-0.44,0.11v0.44h0.11l0.55-0.11c0.13,0.27,1.04,0.78,2.73,1.53c0.51,0.6,0.77,1.37,0.77,2.3
		c0,0.58-0.07,0.88-0.22,0.88l0.11,0.22v0.33c-1.31,0.89-1.97,2.53-1.97,4.92c0,1.04-0.29,1.77-0.88,2.19
		c-0.66,0-1.17-0.58-1.53-1.75v-1.75c0-1.04-0.29-1.77-0.88-2.19h-0.98c-0.38,0-0.71,0.91-0.98,2.73l-0.55,0.55h-0.11
		c-0.36,0-0.55-0.73-0.55-2.19v-1.31c-0.15-0.18-0.22-0.33-0.22-0.44h-0.33v0.22c0,1.75-0.47,2.63-1.42,2.63
		c-0.66-0.33-0.98-0.91-0.98-1.75v-0.98c-1.31-0.2-1.97-0.82-1.97-1.86V45.5c0.13-1.53,0.67-2.3,1.64-2.3
		c0.05,0.44,0.16,0.66,0.33,0.66h0.11v-0.44l-0.33-0.44c0.84-0.33,1.42-0.8,1.75-1.42c0.36-0.6,0.55-1.7,0.55-3.28v-8.64
		C128.87,28.33,129.31,27.67,130.18,27.67z M136.75,15.09c1.99,0,3.66,1.13,5.03,3.39c1.2,1.71,2.77,3.79,4.7,6.23l4.05,5.47
		c0.29,0.44,0.44,0.77,0.44,0.98v0.33c0.51,0,0.98,0.4,1.42,1.2c3.43,4.23,5.14,6.49,5.14,6.78c0.36,0.69,0.55,2.33,0.55,4.92v0.55
		c0,1.2-0.33,2.04-0.98,2.52c-0.69,0.22-1.82,0.33-3.39,0.33h-2.63v-0.22c0.07,0,0.4-0.11,0.98-0.33c0,0.07,0.04,0.11,0.11,0.11
		l0.11-0.22l-0.11-0.22c-0.07,0-0.11,0.04-0.11,0.11l-0.55-0.11l-0.22,0.11c-0.29-0.15-0.51-0.22-0.66-0.22l-0.11,0.22
		c0.15,0.02,0.22,0.09,0.22,0.22c-0.18,0.36-0.33,0.55-0.44,0.55c-0.73,0-1.5-0.29-2.3-0.88c-0.46-0.56-0.75-0.97-0.88-1.2
		l0.11-0.55c-0.15,0-0.22-0.07-0.22-0.22v-0.11l0.88-0.98v-0.11c-0.29,0-0.44-0.07-0.44-0.22v-0.11c0.02-0.15,0.09-0.22,0.22-0.22
		c0.29,0.36,0.51,0.55,0.66,0.55v0.11c-0.07,0.38-0.11,0.6-0.11,0.66c0.07,0.44,0.18,0.66,0.33,0.66c0.09,0,0.24-0.25,0.44-0.77
		v-0.44c-0.29,0-0.51-0.22-0.66-0.66c0-0.36,0.33-0.55,0.98-0.55c0,0.11,0.15,0.26,0.44,0.44h0.22v-0.44l-0.33-0.44v-0.11
		c0.02-0.15,0.09-0.22,0.22-0.22c0.24,0.18,0.42,0.47,0.55,0.88c0.13,0.07,0.27,0.11,0.44,0.11v-0.33c-0.4-1.02-0.77-1.53-1.09-1.53
		c-0.13,0.07-0.27,0.11-0.44,0.11v0.55c0,0.11-0.15,0.26-0.44,0.44c-0.15-0.36-0.22-0.62-0.22-0.77c0.07,0,0.11-0.04,0.11-0.11
		h-0.11c-0.15,0.02-0.22,0.09-0.22,0.22l-0.22-0.11h-0.66c0,0.29-0.15,0.44-0.44,0.44v0.33h0.11l0.33-0.22
		c0.15,0.02,0.22,0.09,0.22,0.22c-0.18,0-0.4,0.4-0.66,1.2c-0.24,0-0.42,0.29-0.55,0.88l0.11,0.55h-0.33c0-0.11-0.07-0.25-0.22-0.44
		v-0.33h0.22l-0.22-1.09h-0.33l-0.33,0.22c-0.11-0.04-2.26-3.17-6.45-9.41c-1.77-2.5-3.15-4.36-4.16-5.58
		c-2.11-3.23-3.94-5.6-5.47-7.11c-0.8-0.38-1.2-0.64-1.2-0.77c0.29,0,0.44-0.07,0.44-0.22v-0.11c0-0.15-0.07-0.22-0.22-0.22h-0.33
		c-0.15,0.02-0.22,0.09-0.22,0.22l-0.22-0.11h-0.11v0.22h-0.11c-0.15,0-0.22-0.07-0.22-0.22c0.07,0,0.11-0.04,0.11-0.11l-0.22-0.11
		h-0.22v0.22h-0.11c-0.24,0-0.49-0.11-0.77-0.33c0-0.07,0.18-0.33,0.55-0.77V18.7c0-0.11-0.26-0.36-0.77-0.77h-0.22v0.22
		c0.15,0.18,0.22,0.33,0.22,0.44l-0.11,0.55h-0.11c-0.2,0-0.38-0.51-0.55-1.53c0-1.6,0.77-2.41,2.3-2.41
		C127.78,15.2,130.91,15.17,136.75,15.09z M125.7,43.64v0.22h0.22v-0.22H125.7z M125.7,47.03v0.11c0.02,0.15,0.09,0.22,0.22,0.22
		c0.15,0,0.22-0.07,0.22-0.22L125.7,47.03z M125.81,16.3v0.33h0.22V16.3H125.81z M126.36,16.08l0.11,0.66
		c-0.15,0.24-0.22,0.46-0.22,0.66l0.22-0.11h0.22l0.33,0.22h0.11l0.55-0.66c0-0.11-0.33-0.36-0.98-0.77H126.36z M127.12,15.64v0.33
		h0.11c0.15,0,0.22-0.07,0.22-0.22l-0.22-0.11H127.12z M127.34,45.28v0.33h0.33v-0.33H127.34z M127.56,17.94v0.55h0.11
		c0.15,0,0.22-0.07,0.22-0.22v-0.33H127.56z M127.67,44.95l0.22,0.11h0.22v-0.33h-0.22C127.74,44.75,127.67,44.83,127.67,44.95z
		 M127.89,20.13H128c0.15,0.02,0.22,0.09,0.22,0.22h-0.33V20.13z M129.75,39.48c0,0.04-0.04,0.18-0.11,0.44l0.22,0.11h0.33V39.7
		c0-0.15-0.07-0.22-0.22-0.22H129.75z M131.5,32.27v0.22h0.11v-0.22H131.5z M132.04,17.28c0.07,0.15,0.11,0.26,0.11,0.33h0.33
		l0.11-0.55c-0.07,0-0.11-0.04-0.11-0.11C132.19,17.06,132.04,17.17,132.04,17.28z M133.46,37.95v0.33
		c0.02,0.15,0.09,0.22,0.22,0.22l0.11-0.22v-0.33H133.46z M133.46,38.94v0.33h0.33v-0.33H133.46z M135,17.39l0.22,0.11h0.11
		c0.15,0,0.22-0.07,0.22-0.22l-0.22-0.11h-0.11C135.07,17.19,135,17.26,135,17.39z M136.75,17.83l-0.11,0.22l0.22,0.11l0.11-0.22
		L136.75,17.83z M138.5,23.41v0.33h0.11c0.15,0,0.22-0.07,0.22-0.22l-0.22-0.11H138.5z M138.61,28.66c0.02,0.15,0.09,0.22,0.22,0.22
		v-0.22H138.61z M140.14,32.05l-0.11,0.22v0.11c0.02,0.15,0.09,0.22,0.22,0.22l0.11-0.22v-0.11
		C140.36,32.12,140.28,32.05,140.14,32.05z M142.76,27.34v0.22c0.15,0,0.22-0.07,0.22-0.22H142.76z M143.31,39.16l-0.11,0.22v0.11
		c0.29,0.18,0.44,0.44,0.44,0.77h0.33c0-0.13,0.11-0.31,0.33-0.55v-0.33c0-0.15-0.07-0.22-0.22-0.22l-0.44,0.11
		C143.49,39.19,143.38,39.16,143.31,39.16z M144.73,39.92l-0.44,0.98h0.22l0.33-0.22h0.11c0.22,0,0.33,0.15,0.33,0.44h0.44v-0.22
		l-0.33-0.77c-0.11,0-0.26-0.07-0.44-0.22H144.73z M144.95,38.61l-0.11,0.22v0.11c0.02,0.15,0.09,0.22,0.22,0.22
		c0.15,0,0.22-0.07,0.22-0.22C145.28,38.83,145.17,38.72,144.95,38.61z M145.82,38.94c0,0.11,0.11,0.22,0.33,0.33h0.11v-0.33
		c0-0.15-0.07-0.22-0.22-0.22C145.9,38.74,145.82,38.81,145.82,38.94z M145.82,43.75h0.22c0,0.15-0.07,0.22-0.22,0.22V43.75z
		 M146.15,39.48v0.22c0.15,0,0.22-0.07,0.22-0.22H146.15z M147.25,39.81l-0.11,0.22l0.77,0.88h0.11c0.15,0,0.22-0.07,0.22-0.22
		v-0.11C147.87,40.07,147.54,39.81,147.25,39.81z M148.12,46.48v0.22h0.22v-0.22H148.12z M159.5,14.98
		c0.58,0.04,0.88,0.15,0.88,0.33l-0.22,0.33l0.11,0.22c-0.11,0-0.22,0.11-0.33,0.33c0.27,0.44,0.46,0.66,0.55,0.66l0.22-0.33
		l-0.11-0.55c0.15,0,0.22-0.07,0.22-0.22l-0.22-0.33h0.11c0.58,0.4,0.88,0.98,0.88,1.75c0,1.39-0.69,2.37-2.08,2.95l-0.55-0.11
		h-0.22l0.11,0.55c-0.88,0.69-1.31,1.82-1.31,3.39c-0.16,0.2-0.49,0.46-0.98,0.77c0,0.27,0.33,0.46,0.98,0.55l0.11,0.22v0.44
		c0,0.15-0.07,0.22-0.22,0.22c-0.13-0.07-0.27-0.11-0.44-0.11c0,0.18-0.07,0.36-0.22,0.55l0.22,0.11h0.11
		c0.04-0.29,0.15-0.44,0.33-0.44c0.15,0.02,0.22,0.09,0.22,0.22c0.07,1.66,0.11,2.9,0.11,3.72c0,1.6-0.58,2.41-1.75,2.41
		c-1.57-0.84-2.73-2.22-3.5-4.16c-0.07-0.38-0.11-0.6-0.11-0.66h0.44v-0.44h-0.44c-0.07-0.73-0.11-1.28-0.11-1.64v-0.88
		c0.36,0,0.55-0.07,0.55-0.22c-0.51,0-0.77-0.47-0.77-1.42c0-1.59-0.91-2.79-2.73-3.61c-0.66-0.66-0.98-1.42-0.98-2.3
		c0-1.46,0.8-2.19,2.41-2.19c0.29,0,0.95,0.04,1.97,0.11C156.54,15.06,158.8,14.98,159.5,14.98z M149,46.48v0.33
		c0,0.15,0.11,0.22,0.33,0.22c0.33-0.15,0.51-0.29,0.55-0.44v-0.33h-0.11L149,46.48z M149.11,43.31v0.33l0.33,0.44v0.11l-0.33,0.44
		v0.22l0.44,0.11c0-0.22,0.25-0.33,0.77-0.33v-0.11C150.31,43.97,149.91,43.57,149.11,43.31z M149.76,17.39
		c0,0.18-0.07,0.36-0.22,0.55v0.11l0.11,0.55h0.22c0-0.55,0.11-0.84,0.33-0.88c-0.07-0.15-0.11-0.25-0.11-0.33H149.76z
		 M150.09,32.81v0.22h0.22v-0.22H150.09z M150.31,17.72v0.11c0,0.13,0.25,0.24,0.77,0.33l0.11-0.22c-0.24-0.15-0.46-0.22-0.66-0.22
		H150.31z M150.31,18.59v0.11h0.22v-0.11H150.31z M150.31,33.25v0.22h0.98v-0.33c0-0.15-0.07-0.22-0.22-0.22h-0.44
		C150.53,32.92,150.42,33.03,150.31,33.25z M150.53,43.31l-0.11,0.22v0.11h0.11c0.15,0,0.22-0.07,0.22-0.22L150.53,43.31z
		 M150.53,17.17v0.22h0.22v-0.22H150.53z M150.96,44.52l-0.11,0.55v0.11c0.18,0,0.58,0.26,1.2,0.77c0.07-0.09,0.11-0.27,0.11-0.55
		c-0.58-0.22-0.88-0.51-0.88-0.88H150.96z M151.29,36.97v0.11h0.22v-0.11H151.29z M151.95,43.42v0.33c0.02,0.15,0.09,0.22,0.22,0.22
		l0.22-0.11c0.09,0.44,0.2,0.66,0.33,0.66h0.11l0.11-0.66l-0.77-0.66C152.02,43.22,151.95,43.29,151.95,43.42z M152.06,16.52v0.11
		c0,0.11,0.11,0.22,0.33,0.33h0.11v-0.33l-0.11-0.22C152.24,16.48,152.13,16.52,152.06,16.52z M152.39,17.72l-0.11,0.22
		c0.35,0.07,0.67,0.26,0.98,0.55h0.11C153.37,18.08,153.04,17.83,152.39,17.72z M152.71,44.63c0,0.11-0.07,0.26-0.22,0.44l0.22,0.11
		c0.15,0,0.22-0.07,0.22-0.22v-0.11C152.93,44.7,152.86,44.63,152.71,44.63z M153.04,21.33v0.33h0.22c0.11,0,0.22-0.11,0.33-0.33
		v-0.11L153.04,21.33z M153.15,43.42l-0.11,0.22v0.22h0.33v-0.22C153.37,43.5,153.3,43.42,153.15,43.42z M153.15,24.94v0.11h0.22
		v-0.11H153.15z M153.59,18.48v0.11h0.44c0.15,0,0.22-0.07,0.22-0.22l-0.22-0.11h-0.22C153.66,18.28,153.59,18.36,153.59,18.48z
		 M153.59,28.88v0.33h0.11c0.15,0,0.22-0.07,0.22-0.22v-0.11H153.59z M153.7,29.75l-0.11,0.22c0.02,0.15,0.09,0.22,0.22,0.22
		l0.11-0.22C153.92,29.82,153.84,29.75,153.7,29.75z M153.7,22.53v0.33h0.22v-0.33H153.7z M154.03,27.45v0.22
		c0.02,0.15,0.09,0.22,0.22,0.22c0.15,0,0.22-0.07,0.22-0.22v-0.22H154.03z M154.14,26.8h0.22v-0.22
		C154.21,26.6,154.14,26.67,154.14,26.8z M154.79,29.2l-0.11,0.22l0.11,0.55c-0.36,0.09-0.55,0.2-0.55,0.33v0.33
		c0.07,0,0.18,0.04,0.33,0.11c0.11-0.29,0.22-0.44,0.33-0.44c0.24,0,0.49,0.11,0.77,0.33c0.15,0,0.22-0.07,0.22-0.22L154.79,29.2z
		 M154.9,27.34v0.22h0.22v-0.22H154.9z M155.67,42.55c0,0.11,0.15,0.26,0.44,0.44l0.11-0.22v-0.55
		C155.85,42.31,155.67,42.42,155.67,42.55z M155.89,24.5v0.22h0.33c0-0.42,0.22-0.67,0.66-0.77c0-0.05,0.18-0.24,0.55-0.55h-0.22
		C156.67,23.41,156.23,23.77,155.89,24.5z M156,44.52v0.33c0.15,0,0.22-0.07,0.22-0.22v-0.11H156z M156.43,17.39l-0.11,0.22
		l0.22,0.11l0.11-0.22L156.43,17.39z M156.32,43.86c0.02,0.15,0.09,0.22,0.22,0.22l0.11-0.22H156.32z M156.32,45.06v0.22
		c0.02,0.15,0.09,0.22,0.22,0.22c0.15,0,0.22-0.07,0.22-0.22l-0.33-0.22H156.32z M156.65,28.77v0.44h0.55c0-0.2,0.11-0.42,0.33-0.66
		v-0.22h-0.22C157.02,28.62,156.8,28.77,156.65,28.77z M156.65,43.31v0.22h0.22v-0.22H156.65z M156.76,46.81v0.22h0.33
		c0.15,0,0.22-0.07,0.22-0.22v-0.33h-0.22C156.98,46.48,156.87,46.59,156.76,46.81z M157.2,18.27l-0.11,0.22v0.11h0.33v-0.11
		C157.42,18.34,157.34,18.27,157.2,18.27z M157.31,20.78v0.11l0.11,0.22l-0.33,0.55v0.11c0.02,0.15,0.09,0.22,0.22,0.22h0.11
		c0-0.15,0.15-0.36,0.44-0.66c-0.15-0.33-0.29-0.51-0.44-0.55H157.31z M157.2,17.5v0.22l0.77-0.11v-0.22L157.2,17.5z M157.2,24.5
		h0.22v0.22h-0.22V24.5z M158.62,18.7v0.22h0.11V18.7H158.62z M158.84,15.97v0.22h0.22v-0.22H158.84z"/>
	<path class="st0" d="M199.04,14.44h0.77c1.68,0,2.52,0.84,2.52,2.52c0.07,1.99,0.11,3.88,0.11,5.69c0,0.18,0.04,0.47,0.11,0.88
		c-0.07,0.15-0.11,0.26-0.11,0.33c0.07,0.51,0.11,0.95,0.11,1.31h-0.11c-0.13-0.07-0.27-0.11-0.44-0.11h-0.11
		c-0.07,0-0.44,0.29-1.09,0.88h-0.22c0-0.22-0.07-0.33-0.22-0.33c-0.53,0-0.82,0.11-0.88,0.33v0.22c0.51,0,0.77,0.33,0.77,0.98
		c0.16,0.22,0.27,0.33,0.33,0.33h0.11c0.44-0.36,0.66-0.62,0.66-0.77h0.22v0.77h0.11c0-0.22,0.07-0.33,0.22-0.33h0.55
		c0,0.35,0.07,0.6,0.22,0.77v3.72l0.22,0.33v0.11c0,1.35-0.04,2.44-0.11,3.28c0.22,3.37,0.33,6.03,0.33,7.98v0.44
		c0,0.4,0.04,0.91,0.11,1.53c0,1.46-0.91,2.19-2.73,2.19c-2.97,0.09-5.16,0.2-6.56,0.33c-0.16,0-0.57-0.04-1.2-0.11
		c-1.35,0.07-2.48,0.11-3.39,0.11c-1.46-0.16-2.19-0.78-2.19-1.86v-0.98c0-1.09,0.8-1.86,2.41-2.3c1.17-0.64,1.75-1.7,1.75-3.17
		c-0.13,0-0.31-5.14-0.55-15.42l0.11-0.66c0-1.46-0.51-2.48-1.53-3.06c-2.04-0.49-3.06-1.37-3.06-2.63v-1.09
		c0-1.17,1.28-1.75,3.83-1.75c0.69,0,2.77-0.11,6.23-0.33c0.29,0.07,0.55,0.11,0.77,0.11C197.79,14.51,198.45,14.44,199.04,14.44z
		 M191.82,24.61v0.11c0.02,0.15,0.09,0.22,0.22,0.22c0.15,0,0.22-0.07,0.22-0.22v-0.11c0-0.15-0.07-0.22-0.22-0.22
		C191.89,24.41,191.82,24.48,191.82,24.61z M193.79,34.23l0.22,0.11c0.15,0,0.22-0.07,0.22-0.22L194,34.02
		C193.86,34.03,193.79,34.11,193.79,34.23z M194.22,28.66v0.11c0.05,0.44,0.16,0.66,0.33,0.66c0.51-0.25,0.77-0.44,0.77-0.55v-0.22
		h-0.11c-0.07,0-0.18,0.04-0.33,0.11L194.22,28.66z M194.66,23.41c0.02,0.15,0.09,0.22,0.22,0.22v-0.22H194.66z M195.86,21.98h-0.66
		v0.11c0.11,0.29,0.22,0.44,0.33,0.44c0.66-0.15,0.98-0.29,0.98-0.44l-0.11-0.22L195.86,21.98z M195.43,30.84v0.33h0.33v-0.33
		H195.43z M196.52,28.11c-0.13-0.07-0.27-0.11-0.44-0.11c-0.09,0.49-0.2,0.82-0.33,0.98v0.33c0.15,0,0.22,0.04,0.22,0.11
		c0.56-0.05,0.97-0.2,1.2-0.44h0.22l0.55,0.11c0.15-0.24,0.22-0.42,0.22-0.55c-0.15,0-0.22-0.07-0.22-0.22v-0.11h0.11l0.33,0.22
		h0.22v-0.88c-0.18,0-0.37-0.07-0.55-0.22C197.52,27.51,197.01,27.76,196.52,28.11z M196.19,25.16l0.22,0.11
		c0.15,0,0.22-0.07,0.22-0.22l-0.22-0.11C196.26,24.96,196.19,25.03,196.19,25.16z M196.3,33.8l0.22,0.11l0.11-0.22v-0.11h-0.11
		C196.37,33.6,196.3,33.67,196.3,33.8z M196.74,24.28c0.07,0.22,0.29,0.33,0.66,0.33c0-0.38-0.11-0.6-0.33-0.66
		C196.96,23.95,196.85,24.06,196.74,24.28z M196.85,26.8v0.22l0.55,0.11V26.8H196.85z M197.18,28.33l0.11,0.22
		c0,0.15-0.07,0.22-0.22,0.22l-0.11-0.22C196.97,28.4,197.05,28.33,197.18,28.33z M197.07,30.3v0.22h0.11V30.3H197.07z M198.6,25.38
		l0.22,0.11h0.22v-0.11c0-0.15-0.07-0.22-0.22-0.22C198.67,25.17,198.6,25.25,198.6,25.38z M199.14,26.58v0.11l0.11,0.22
		c-0.07,0.15-0.11,0.26-0.11,0.33h0.33v-0.22l-0.11-0.22c0.07,0,0.11-0.04,0.11-0.11l-0.22-0.11H199.14z M199.36,27.56l-0.11,0.22
		l0.44,0.22l0.66-0.11h0.22v-0.22C199.93,27.6,199.53,27.56,199.36,27.56z M201.99,28.11l0.22,0.77h0.22l-0.11-0.77H201.99z
		 M207.68,14h0.77c0.42,0,1,0.04,1.75,0.11l0.22-0.11c3.48,0.71,6.07,1.88,7.77,3.5c2.13,2.11,3.48,3.97,4.05,5.58
		c0.95,2.84,1.42,5.25,1.42,7.22v1.31c0,0.77-0.22,2.3-0.66,4.59v0.22h-0.55v0.33c0.22,0,0.33,0.11,0.33,0.33
		c-0.77,2.15-2.22,4.34-4.38,6.56c-0.11,0-0.33,0.22-0.66,0.66c0.15,0.02,0.22,0.09,0.22,0.22c-1.31,1.04-1.97,2.72-1.97,5.03
		l-0.44,0.33h-0.22c-0.22,0-0.4-0.66-0.55-1.97l0.11-0.44c-0.22-0.35-0.33-0.56-0.33-0.66c-1.02,0-1.68,1.02-1.97,3.06
		c0,2.5-0.37,3.96-1.09,4.38c-0.37,0.22-0.73,0.33-1.09,0.33h-0.22c-0.58-0.31-0.88-1.22-0.88-2.73v-1.97
		c-0.46-1.82-1.15-2.73-2.08-2.73c-0.88,0-1.39-0.73-1.53-2.19c0-1.9,0.8-2.84,2.41-2.84c1.68-0.44,2.52-1.6,2.52-3.5l-0.11-0.98
		c0-4.14-0.11-7.02-0.33-8.64c-0.07-4.39-0.11-6.8-0.11-7.22c0-0.58-0.55-1.28-1.64-2.08c-1.97-0.27-2.95-0.75-2.95-1.42
		c-0.09,0-0.24-0.58-0.44-1.75C205.05,14.84,205.93,14,207.68,14z M210.85,29.53v0.11h0.22v-0.11H210.85z M213.47,43.64v0.22
		c0.02,0.15,0.09,0.22,0.22,0.22c0.15,0,0.22-0.07,0.22-0.22c0-0.15-0.07-0.22-0.22-0.22H213.47z M213.91,40.91v0.11h0.22v-0.11
		H213.91z M214.57,41.56l-0.22,0.33v0.33h0.22c0.15,0,0.22-0.07,0.22-0.22v-0.22C214.79,41.64,214.71,41.56,214.57,41.56z
		 M215.11,38.83v0.33c0.15,0,0.22-0.07,0.22-0.22v-0.11H215.11z M215.22,40.03v0.22h0.22v-0.22H215.22z M216.21,40.25v0.22
		c0.02,0.15,0.09,0.22,0.22,0.22c0.15,0,0.22-0.07,0.22-0.22v-0.44h-0.22C216.28,40.05,216.21,40.12,216.21,40.25z M217.08,38.5
		l0.11,0.55c0,0.15-0.11,0.22-0.33,0.22v0.11c0,0.38,0.15,0.64,0.44,0.77h0.11c0-0.05-0.04-0.27-0.11-0.66l0.11-0.55
		C217.3,38.65,217.19,38.5,217.08,38.5z M217.08,37.52v0.33h0.22c0.24-0.22,0.42-0.33,0.55-0.33V37.3
		C217.39,37.44,217.14,37.52,217.08,37.52z M217.63,40.03l0.11,0.22c-0.07,0.13-0.11,0.27-0.11,0.44v0.22h0.11
		c0.15,0,0.22-0.07,0.22-0.22l-0.11-0.55c0.15,0,0.22-0.07,0.22-0.22V39.7h-0.22C217.7,39.7,217.63,39.81,217.63,40.03z
		 M217.96,38.61v0.44c0.22,0.27,0.33,0.49,0.33,0.66h0.11c0.11,0,0.25-0.15,0.44-0.44v-0.55c0-0.15-0.11-0.22-0.33-0.22
		L217.96,38.61z M218.39,37.84v0.11c0,0.07,0.25,0.26,0.77,0.55c0.09-0.11,0.16-0.47,0.22-1.09h-0.55
		C218.72,37.41,218.58,37.55,218.39,37.84z M219.16,36.53v0.22h0.22v-0.22H219.16z M219.82,38.06v0.11h0.22v-0.11H219.82z
		 M220.47,36.53v0.22h0.11v-0.22H220.47z M222.11,29.42l0.22,0.11h0.22V29.2h-0.22C222.19,29.22,222.11,29.29,222.11,29.42z"/>
	<path class="st0" d="M237.04,25.65c0.58,0.11,0.88,0.36,0.88,0.77v0.11h0.77c0.2,0,0.42,0.07,0.66,0.22
		c0.15-0.07,0.25-0.11,0.33-0.11c0.66,1.4,0.98,2.5,0.98,3.28v0.22c-0.24,0.75-1.37,3.15-3.39,7.22c-0.73,1.4-1.09,2.28-1.09,2.63
		v0.77c0,0.8,0.88,1.57,2.63,2.3c0.36,0.58,0.55,1.02,0.55,1.31v0.66h-0.33v0.44l0.22,0.33v0.22h-0.44v0.22h0.22v0.22
		c-0.27,0.51-0.6,0.77-0.98,0.77v-0.11c0-0.11,0.11-0.22,0.33-0.33l-0.11-0.66h-0.77l0.44,0.55v0.22c0,0.11-0.33,0.29-0.98,0.55
		c-0.22,0-0.33-0.04-0.33-0.11c-0.07,0-0.18,0.04-0.33,0.11c-6.2-0.27-9.3-0.56-9.3-0.88c-0.51-0.55-0.77-1.46-0.77-2.73
		c0.49-1.39,1.26-2.08,2.3-2.08c1.26-0.82,2.24-2.17,2.95-4.05c0.73-1.86,1.28-2.95,1.64-3.28h0.22l0.77,0.11
		c0.51-0.42,0.77-0.78,0.77-1.09l-0.22-0.11h-0.11c0,0.29-0.07,0.44-0.22,0.44c-0.11,0-0.22-0.15-0.33-0.44l-0.22,0.11h-0.22
		l-0.22-0.11c1.02-2.22,1.64-3.46,1.86-3.72h0.11c0,0.22,0.15,0.4,0.44,0.55c0.24-0.15,0.42-0.22,0.55-0.22V29.7h-0.22l-0.33,0.22
		l-0.11-0.22l0.33-0.44v-0.22c0-0.07-0.15-0.18-0.44-0.33c0.07-0.15,0.11-0.25,0.11-0.33h0.66c0-0.38-0.11-0.6-0.33-0.66
		C236.31,26.76,236.68,26.07,237.04,25.65z M227.86,43.26v0.55h0.33v-0.55H227.86z M229.06,43.15l0.33,0.22h0.22
		c0-0.33,0.15-0.55,0.44-0.66c-0.15-0.33-0.29-0.51-0.44-0.55C229.42,42.16,229.24,42.49,229.06,43.15z M229.17,45.01l0.11,0.55
		h0.11c0.15,0,0.22-0.07,0.22-0.22v-0.33H229.17z M230.15,46.54l-0.11,0.22h0.33C230.37,46.61,230.3,46.54,230.15,46.54z
		 M230.15,41.51v0.22l0.11,0.22c0.15-0.07,0.25-0.11,0.33-0.11c-0.07-0.15-0.11-0.25-0.11-0.33H230.15z M230.26,40.74l0.22,0.11
		c0.15,0,0.22-0.07,0.22-0.22v-0.11h-0.22C230.33,40.54,230.26,40.61,230.26,40.74z M230.37,43.59v0.11h0.22v-0.11H230.37z
		 M230.37,46.21v0.11h0.22v-0.11H230.37z M231.03,42.6v1.42c0,0.16-0.18,0.27-0.55,0.33c0.02,0.15,0.09,0.22,0.22,0.22h0.66V43.7
		l0.11-1.09H231.03z M231.36,40.52v0.22h0.33V40.3h-0.11C231.43,40.32,231.36,40.4,231.36,40.52z M235.29,32.1l0.11,0.66h0.22
		c0-0.22,0.07-0.33,0.22-0.33c0,0.11,0.11,0.22,0.33,0.33h0.22V32.1c-0.16,0-0.38-0.11-0.66-0.33L235.29,32.1z M236.39,28.6v0.77
		l0.55,0.11l0.22-0.33v-0.77L236.39,28.6z M236.61,27.29c0.07,0.15,0.11,0.26,0.11,0.33h0.33v-0.44c0-0.15-0.07-0.22-0.22-0.22
		C236.68,26.96,236.61,27.07,236.61,27.29z M237.04,32.54l-0.11,0.44h0.44v-0.44H237.04z M237.04,30.02h0.22
		c0.15,0,0.22-0.07,0.22-0.22v-0.22h-0.11C237.26,29.59,237.15,29.73,237.04,30.02z M237.26,43.15v0.22h0.22
		C237.48,43.22,237.41,43.15,237.26,43.15z M237.92,25.21h0.33c0.38,0,0.71,0.26,0.98,0.77h0.22v0.33c-0.75,0-1.33-0.33-1.75-0.98
		L237.92,25.21z M237.92,28.38v0.22c0.02,0.15,0.09,0.22,0.22,0.22h0.22v-0.33C238.19,28.49,238.04,28.46,237.92,28.38z
		 M238.36,29.59c0.18-0.15,0.33-0.22,0.44-0.22v-0.33h-0.11C238.52,29.04,238.41,29.22,238.36,29.59z M244.04,15.04
		c5.18,0,7.77,0.33,7.77,0.98c0.51,0,1.42,2.11,2.73,6.34c0,0.26,0.33,1.2,0.98,2.84h-0.11c0.73,1.73,1.28,3.26,1.64,4.59h-0.11
		l-0.22-0.11l-0.11,0.22v0.22c0.8,0.62,1.2,1.24,1.2,1.86v0.11l-0.22-0.11c-0.15,0.02-0.22,0.09-0.22,0.22
		c0.15,0,0.22,0.11,0.22,0.33h0.22V32.1c0.11,0.02,0.69,1.7,1.75,5.03l0.66,1.64l-0.11,0.55c0.29,0,0.44,0.07,0.44,0.22
		c-0.07,0.13-0.11,0.27-0.11,0.44c0.15,0.04,0.51,0.62,1.09,1.75v0.11l-0.11,0.22c0.13,0,0.24,0.26,0.33,0.77
		c0.15-0.07,0.25-0.11,0.33-0.11c1.57,0,2.59,0.8,3.06,2.41v0.11c0,0.07-0.04,0.18-0.11,0.33c0.07,0.4,0.11,0.73,0.11,0.98v0.33
		c-0.57,0.75-1.08,1.15-1.53,1.2v-0.11l-0.22,0.11H261c0,0.66-0.22,1.09-0.66,1.31h-0.33c-0.73-0.66-1.39-0.98-1.97-0.98h-0.44
		c-0.89,0.11-1.41,1.11-1.56,3.01l-0.63,0.38c-0.75,0.44-1.29-0.33-1.64-2.3c-0.66-0.88-1.35-1.31-2.08-1.31h-0.33
		c-0.88,0.18-1.31,0.88-1.31,2.08c-0.04,1.49-0.05,2.52-0.05,3.06c-0.09,1.39-0.47,2.08-1.15,2.08c-0.15,0.07-0.26,0.11-0.33,0.11
		c-0.62,0-1.06-0.73-1.31-2.19v-4.16c0-1.09-0.22-1.64-0.66-1.64c-1.02-0.31-1.53-0.93-1.53-1.86v-0.11c0.15,0,0.22-0.07,0.22-0.22
		l-0.22-0.33c0-1.17,1.02-2.11,3.06-2.84c0.22-0.91,0.33-1.39,0.33-1.42c-0.42-1.02-1.26-1.53-2.52-1.53h-0.55
		c0,0.07-0.15,0.47-0.44,1.2c0.07,0.75,0.11,1.33,0.11,1.75c-0.07,0.88-0.44,1.31-1.09,1.31c-0.51-0.42-0.77-0.97-0.77-1.64v-1.31
		c0-0.64-0.69-1.33-2.08-2.08l-0.33-0.55v-0.55c0-1.39,0.62-2.37,1.86-2.95c1.68-0.36,2.52-0.73,2.52-1.09v-0.55l-0.11-0.55h0.11
		c-0.58-1.97-1.28-3.97-2.08-6.02c-1.39-3.35-2.08-5.69-2.08-7v-0.11c0-0.89,0.44-1.99,1.31-3.28
		C242.75,15.33,243.33,15.08,244.04,15.04z M250.93,37.46l0.22,0.11h0.11v-0.33h-0.11C251.01,37.26,250.93,37.33,250.93,37.46z
		 M251.7,41.73v0.22h0.22v-0.22H251.7z M252.14,25.43v0.33h0.22v-0.33H252.14z M252.46,37.35v0.11l0.11,0.55
		c-0.11,0-0.22,0.11-0.33,0.33v0.33c0.05,0.44,0.16,0.66,0.33,0.66c0-0.47,0.07-0.8,0.22-0.98c-0.07-0.13-0.11-0.27-0.11-0.44
		l0.22-0.33v-0.22H252.46z M252.25,40.09v0.11h0.22v-0.11H252.25z M252.9,32.54c0.15,0.86,0.22,1.48,0.22,1.86h0.22v-0.11
		c0-0.38-0.04-1-0.11-1.86h-0.11L252.9,32.54z M253.01,26.85h0.22v-0.22C253.08,26.65,253.01,26.72,253.01,26.85z M253.12,38.34
		l0.22,0.11h0.22v-0.33h-0.22C253.19,38.14,253.12,38.21,253.12,38.34z M253.45,28.38h0.11c0.24-0.22,0.42-0.33,0.55-0.33
		c0-0.15-0.07-0.22-0.22-0.22h-0.11C253.61,27.84,253.5,28.02,253.45,28.38z M253.56,34.95v0.22H254c0-0.15-0.07-0.22-0.22-0.22
		H253.56z M254.11,28.82c0,0.44-0.15,0.66-0.44,0.66v0.55H254c0-0.29,0.07-0.44,0.22-0.44c0.15,0.02,0.22,0.09,0.22,0.22
		c-0.11,0-0.26,0.15-0.44,0.44v0.11l0.66,0.55l-0.22,0.44c0.07,0.44,0.18,0.66,0.33,0.66h0.22v-0.66c0-0.07-0.11-0.44-0.33-1.09
		v-0.11l0.33-0.44v-0.11c-0.26-0.51-0.44-0.77-0.55-0.77H254.11z M253.67,31.01v0.55h0.22c0.15,0,0.22-0.07,0.22-0.22v-0.11
		c0-0.15-0.07-0.22-0.22-0.22H253.67z M253.67,42.38v0.11c0.02,0.15,0.09,0.22,0.22,0.22h0.33v-0.33H253.67z M253.89,23.68
		c0.02,0.15,0.09,0.22,0.22,0.22l0.11-0.22H253.89z M254,26.74h0.33v-0.22h-0.11C254.07,26.54,254,26.61,254,26.74z M254.11,38.23
		h0.33v-0.22h-0.11C254.18,38.03,254.11,38.1,254.11,38.23z M254.32,28.05l0.22,0.11h0.44v-0.22c0-0.15-0.07-0.22-0.22-0.22h-0.11
		C254.54,27.73,254.43,27.84,254.32,28.05z M255.86,30.9l-0.11,0.22l0.11,0.55c-0.09,0-0.24,0.29-0.44,0.88h-0.11l-0.33-0.22h-0.22
		c0,0.11-0.07,0.26-0.22,0.44v0.22c0.02,0.15,0.09,0.22,0.22,0.22c0-0.2,0.18-0.38,0.55-0.55l0.66,0.11h0.11v-0.98
		c0.02-0.15,0.09-0.22,0.22-0.22c0.27,0.36,0.46,0.55,0.55,0.55c0.44-0.15,0.66-0.36,0.66-0.66l-0.22-0.11h-0.11l-0.33,0.22
		C256.57,31.12,256.24,30.9,255.86,30.9z M254.65,36.37h0.22v-0.22C254.72,36.17,254.65,36.24,254.65,36.37z M254.65,43.15v0.55
		c0.31,0,0.6,0.15,0.88,0.44h0.22V43.7c0-0.15-0.29-0.25-0.88-0.33v-0.22H254.65z M254.76,42.6v0.22h0.11V42.6H254.76z M255.2,26.74
		v0.11c0.29,0,0.44,0.26,0.44,0.77h0.33c-0.04-0.73-0.15-1.09-0.33-1.09h-0.22C255.27,26.54,255.2,26.61,255.2,26.74z M255.2,38.99
		v0.22h0.33v-0.44h-0.11C255.27,38.79,255.2,38.86,255.2,38.99z M255.42,41.73v0.33h0.11c0.15,0,0.22-0.07,0.22-0.22l-0.22-0.11
		H255.42z M256.29,32.76v0.22c0,0.18,0.33,0.29,0.98,0.33v-0.33c-0.09,0-0.31-0.11-0.66-0.33
		C256.47,32.72,256.37,32.76,256.29,32.76z M256.51,44.57v0.22h0.11v-0.22H256.51z M256.95,42.71l-0.11,0.22v0.11
		c0.02,0.15,0.09,0.22,0.22,0.22l0.22-0.11C257.17,42.86,257.06,42.71,256.95,42.71z M257.71,33.63l-0.11,0.77l0.22,0.11h0.33V34.4
		l-0.22-0.77H257.71z M257.82,37.13v0.11c0.15,0,0.22-0.07,0.22-0.22v-0.11C257.9,36.93,257.82,37.01,257.82,37.13z M258.37,36.04
		c0,0.13-0.11,0.31-0.33,0.55v0.22c0.31-0.11,0.53-0.29,0.66-0.55v-0.22H258.37z M258.26,37.35v0.33h0.33v-0.33H258.26z
		 M259.03,37.68l-0.11,0.22l0.11,0.55h0.44v-0.66L259.03,37.68z M259.9,39.43v0.22h0.22v-0.22H259.9z M260.78,41.73l-0.11,0.66
		l0.22,0.11l0.33-0.44v-0.33H260.78z M262.86,43.04v0.11c0.02,0.15,0.09,0.22,0.22,0.22l0.11-0.22l-0.22-0.11H262.86z"/>
	<path class="st0" d="M280.71,14.79h0.77c1.82,0,2.73,0.84,2.73,2.52c0.07,3.61,0.11,6.42,0.11,8.42l-0.11,0.66
		c0.07,0.27,0.11,0.57,0.11,0.88v4.16l-0.11,1.09c0.15,0.02,0.22,0.09,0.22,0.22v2.52l-0.44,0.44v0.22c0.29,0.22,0.44,0.4,0.44,0.55
		c0.07,2.13,0.11,3.37,0.11,3.72c-0.07,0-0.11,0.04-0.11,0.11c-0.29-0.15-0.51-0.22-0.66-0.22c-0.15,0.07-0.26,0.11-0.33,0.11
		l-0.11-0.22l0.11-0.22c-0.11-0.29-0.22-0.44-0.33-0.44c-0.18,0.22-0.47,0.33-0.88,0.33c0.51,0.27,0.77,0.46,0.77,0.55
		c0,0.15,0.22,0.51,0.66,1.09v0.11h0.44l0.44-0.33c0,0.11,0.25,0.44,0.77,0.98c-0.22,0.4-0.33,0.69-0.33,0.88
		c0.11,0,0.36,0.15,0.77,0.44h0.22v-0.22l-0.11-0.77c1.49,0.4,2.33,0.8,2.52,1.2l-0.22,0.33v0.22l0.33-0.22h0.22
		c0.22,0.77,0.33,1.2,0.33,1.31c0.07,0,0.11,0.04,0.11,0.11c0,0.33-0.18,0.73-0.55,1.2v0.11l-0.44-0.33h-0.11v0.44l0.11,0.22
		l-0.77,0.44h-0.22l-0.22-0.11c0-0.6,0.25-0.93,0.77-0.98c-0.07-0.88-0.22-1.31-0.44-1.31c-0.15,0.07-0.26,0.11-0.33,0.11v0.33
		c0.29,0,0.44,0.22,0.44,0.66v0.11l-0.55-0.11h-0.11v0.22l0.22,0.33v0.11c0,0.15-0.07,0.22-0.22,0.22h-0.33
		c-0.22-0.07-0.33-0.29-0.33-0.66v-0.11c0.22-0.33,0.33-0.66,0.33-0.98c-0.15,0-0.22-0.07-0.22-0.22v-0.11
		c0.02-0.15,0.09-0.22,0.22-0.22c0.07,0.13,0.11,0.27,0.11,0.44h0.33v-0.11c0-0.05-0.04-0.27-0.11-0.66
		c0.15-0.24,0.22-0.46,0.22-0.66c0-0.05-0.04-0.27-0.11-0.66h-0.11c-0.15,0.02-0.22,0.09-0.22,0.22c0.07,0.15,0.11,0.26,0.11,0.33
		c-0.18,0.15-0.33,0.22-0.44,0.22c-0.22-0.07-0.33-0.15-0.33-0.22c-0.8,0.07-1.2,0.18-1.2,0.33c0,0.16,0.18,0.27,0.55,0.33v0.22
		c-0.22,0-0.33,0.07-0.33,0.22v0.11l0.11,0.55c-0.44,0.16-0.66,0.27-0.66,0.33c0.07,0.15,0.11,0.26,0.11,0.33l-0.22,0.11
		c-0.16,0-0.31-0.04-0.44-0.11c-0.13,0.07-0.27,0.11-0.44,0.11l-0.22-0.11c-0.15,0.44-0.29,0.66-0.44,0.66
		c-0.07-0.13-0.11-0.27-0.11-0.44h-0.11c-0.16,0-0.31,0.04-0.44,0.11c-0.13-0.07-0.27-0.11-0.44-0.11v0.33
		c0.29,0.22,0.44,0.44,0.44,0.66h0.66l-0.11-0.22v-0.11h0.22c0.15,0,0.22,0.11,0.22,0.33h1.97c0-0.29,0.18-0.44,0.55-0.44
		c0.15,0.27,0.22,0.57,0.22,0.88c0,0.15-0.07,0.22-0.22,0.22h-2.3c-1.46,0-2.19,0.4-2.19,1.2c-0.24,1.53-0.71,2.3-1.42,2.3
		c-1.02-0.42-1.53-1.08-1.53-1.97l-0.33-0.22h-0.22c-0.58,0.36-0.88,0.98-0.88,1.86c0,2.79,0,4.61,0,5.47v0.66
		c0,0.73-0.33,1.09-0.98,1.09c-0.51,0-0.82-0.55-0.93-1.64c0-0.55,0.05-2.66,0.16-6.34c-0.2-1.02-0.6-1.53-1.2-1.53h-0.55v0.66
		c0,1.17-0.47,1.75-1.42,1.75c-0.58-0.31-0.88-0.67-0.88-1.09c-0.18-1.62-0.55-2.46-1.09-2.52c-0.58-0.6-0.88-1.33-0.88-2.19
		c0.18-1.68,0.95-2.52,2.3-2.52c0.6,0,1.18-0.44,1.75-1.31c0.13-0.93,0.27-1.48,0.44-1.64v-0.11c-0.15,0-0.22-0.04-0.22-0.11
		c0-0.67-0.04-1.88-0.11-3.61c0.15,0,0.22-0.07,0.22-0.22v-0.22c-0.22,0-0.33-0.07-0.33-0.22v-1.42h0.11l0.77,0.66
		c0.29,0,0.55,0.11,0.77,0.33h0.33v-0.55c-0.47-0.33-0.88-0.51-1.2-0.55c0-0.18-0.15-0.29-0.44-0.33c-0.15,0.07-0.26,0.11-0.33,0.11
		v-2.95c0-0.4-0.04-0.91-0.11-1.53c0-0.07,0.04-0.11,0.11-0.11l-0.11-0.55v-2.84c0-0.46,0.04-1,0.11-1.64
		c-0.18-2.41-0.69-3.61-1.53-3.61c-0.73-0.24-1.09-0.42-1.09-0.55l0.11-0.77h-0.22c-0.18,0-0.33,0.29-0.44,0.88h-0.22
		c-0.73,0-1.13-0.95-1.2-2.84v-0.22c0-1.09,1.09-1.64,3.28-1.64C276.48,14.94,279.51,14.79,280.71,14.79z M269.23,16.54l-0.11,0.55
		h0.66v-0.22c0-0.11-0.11-0.22-0.33-0.33H269.23z M269.66,18.07l0.33,0.22h0.11c0.15,0,0.22-0.07,0.22-0.22v-0.33h-0.33
		C269.88,17.75,269.77,17.86,269.66,18.07z M270.43,15.56c-0.07,0.13-0.15,0.46-0.22,0.98h0.22c0.09,0,0.27-0.22,0.55-0.66
		C270.98,15.72,270.79,15.61,270.43,15.56z M270.21,17.31c0.07,0,0.11,0.04,0.11,0.11c0.15-0.07,0.25-0.11,0.33-0.11v-0.22h-0.22
		C270.28,17.11,270.21,17.18,270.21,17.31z M273.27,29.45v0.33h0.22v-0.11C273.49,29.52,273.42,29.45,273.27,29.45z M273.27,32.4
		v0.44c0.02,0.15,0.09,0.22,0.22,0.22h0.33V32.4H273.27z M273.6,31.2v0.11c0.15,0.22,0.22,0.51,0.22,0.88h0.33l0.11-0.66
		C274.09,31.53,273.88,31.42,273.6,31.2z M273.71,27.04v0.22h0.11v-0.22H273.71z M273.71,36.34v0.22h0.11v-0.22H273.71z
		 M273.82,40.17l-0.11,0.22v0.11h0.11c0.15,0,0.22-0.07,0.22-0.22L273.82,40.17z M274.26,31.09v0.33h0.11l0.77-0.11v-0.44h-0.22
		C274.75,31.02,274.53,31.09,274.26,31.09z M274.7,30v0.11c0.02,0.15,0.09,0.22,0.22,0.22h0.11v-0.22
		C274.95,30.11,274.84,30.07,274.7,30z M274.7,31.96v0.44h0.22c0.11,0,0.22-0.11,0.33-0.33l-0.22-0.11H274.7z M275.57,30.43v0.33
		h0.66l0.11-0.44l-0.22-0.11C275.88,30.36,275.7,30.43,275.57,30.43z M276.01,32.4v0.33c0.13,0,0.31,0.11,0.55,0.33h0.22v-0.33
		C276.35,32.51,276.1,32.4,276.01,32.4z M276.01,34.92v0.55h0.22c0-0.24,0.04-0.42,0.11-0.55H276.01z M276.77,34.59v0.11
		c0,0.11,0.11,0.22,0.33,0.33h0.11c-0.15-0.18-0.22-0.33-0.22-0.44H276.77z M276.99,31.96v0.22c0.02,0.15,0.09,0.22,0.22,0.22
		l0.11-0.22v-0.22H276.99z M277.1,31.53l0.22,0.11h0.11c0.15,0,0.22-0.07,0.22-0.22l-0.22-0.11h-0.11
		C277.17,31.33,277.1,31.4,277.1,31.53z M277.21,27.59v0.22h0.22v-0.22H277.21z M277.76,35.79v0.33h0.22c0.15,0,0.22-0.07,0.22-0.22
		v-0.11H277.76z M277.76,46.18v0.22c0.02,0.15,0.09,0.22,0.22,0.22l0.11-0.22v-0.22H277.76z M277.98,43.78v0.11
		c0.02,0.15,0.09,0.22,0.22,0.22h0.55V44c0-0.11-0.15-0.25-0.44-0.44h-0.11C278.05,43.58,277.98,43.65,277.98,43.78z M278.3,32.51
		v0.22c0.02,0.15,0.09,0.22,0.22,0.22h0.11v-0.11c-0.07-0.15-0.11-0.25-0.11-0.33H278.3z M278.63,34.26
		c0.07,0.13,0.11,0.31,0.11,0.55h0.33l0.11-0.55l-0.22-0.11h-0.11L278.63,34.26z M279.07,46.84v0.33h0.44v-0.11
		c0-0.15-0.07-0.22-0.22-0.22H279.07z M279.84,45.31v0.33h0.33v-0.33H279.84z M280.05,40.93v0.22h0.11v-0.22H280.05z M280.38,44.98
		v0.33c0.15,0,0.22-0.07,0.22-0.22v-0.11H280.38z M280.49,33.93v0.22c0.29,0.44,0.55,0.66,0.77,0.66v-0.22
		c-0.29-0.16-0.44-0.38-0.44-0.66H280.49z M280.6,35.25v0.44h0.11c0.15,0,0.22-0.07,0.22-0.22v-0.22H280.6z M280.6,43.45l0.22,0.11
		v-0.33C280.67,43.25,280.6,43.32,280.6,43.45z M281.26,30.54v0.33h0.11c0.15,0,0.22-0.07,0.22-0.22l-0.22-0.11H281.26z
		 M281.48,36.01v0.22h0.22v-0.22H281.48z M282.02,37.11l0.22,0.11h0.11c0.15,0,0.22-0.07,0.22-0.22v-0.55
		c0-0.15-0.07-0.22-0.22-0.22C282.21,36.23,282.1,36.52,282.02,37.11z M282.13,41.04c0.29,0,0.44,0.07,0.44,0.22v0.22l-0.22,0.33
		v0.11h0.11c0.24-0.22,0.42-0.33,0.55-0.33v-0.44c0-0.09-0.18-0.27-0.55-0.55C282.35,40.61,282.24,40.75,282.13,41.04z
		 M282.24,39.07c0.07,0,0.11,0.04,0.11,0.11l0.66-0.11v-0.22c0-0.11-0.11-0.22-0.33-0.33C282.53,38.56,282.39,38.75,282.24,39.07z
		 M282.35,28.36v0.33h0.22v-0.33H282.35z M282.46,31.53v0.22h0.22v-0.22H282.46z M282.57,42.25v0.44h0.66v-0.44H282.57z
		 M283.01,34.59l-0.11,1.09l0.22,0.11h0.22c0.07-0.4,0.11-0.69,0.11-0.88c-0.07-0.15-0.11-0.25-0.11-0.33H283.01z M283.01,44.76
		v0.22c0,0.11,0.11,0.22,0.33,0.33h0.11l-0.11-0.55H283.01z M283.23,43.45l0.22,0.11c0.15,0,0.22-0.07,0.22-0.22l-0.22-0.11
		C283.3,43.25,283.23,43.32,283.23,43.45z M283.34,41.81l0.22,0.11l0.11-0.22v-0.11h-0.11C283.41,41.61,283.34,41.68,283.34,41.81z
		 M283.55,46.62h0.44v0.22h-0.44V46.62z M283.77,42.03l-0.11,0.22c0,0.11,0.11,0.22,0.33,0.33h0.22v-0.44
		C284.05,42.14,283.9,42.1,283.77,42.03z M283.88,38.09v0.22h0.33v-0.22H283.88z M283.88,44.21v0.44h0.33v-0.44H283.88z
		 M292.74,14.68c3.26,0,5.74,0.77,7.44,2.3c1.48,0.77,2.72,2.63,3.72,5.58c0.15,0.69,0.22,1.24,0.22,1.64
		c0,3.61-1.02,6.02-3.06,7.22c-0.46,0.4-1.44,1.06-2.95,1.97l-0.11,0.55c0,0.78,1.79,2.86,5.36,6.23v0.11h-0.22v0.22
		c0.07,0,0.18,0.04,0.33,0.11c0.13-0.07,0.27-0.11,0.44-0.11c0.11,0.44,1.49,1.02,4.16,1.75c0.4,0.22,0.77,0.84,1.09,1.86v0.55
		c0,1.2-0.47,1.93-1.42,2.19l-3.5,0.33h-0.11l-0.44-0.33v0.33h-1.2l-0.77,0.11v-0.22h0.22c-0.07-0.44-0.18-0.66-0.33-0.66
		c-0.07,0.58-0.18,0.88-0.33,0.88c-2.24,0.07-3.7,0.11-4.38,0.11c-0.22-0.47-0.33-0.8-0.33-0.98c0.02-0.15,0.09-0.22,0.22-0.22
		c0,0.11,0.15,0.26,0.44,0.44h0.33l0.33-0.22c0.29,0.15,0.44,0.33,0.44,0.55h0.22c0.11,0,0.22-0.11,0.33-0.33
		c-0.29,0-0.47-0.4-0.55-1.2l-0.66-0.11c-0.29,0-0.44,0.18-0.44,0.55l-0.22-0.11c0-0.25,0.11-0.55,0.33-0.88v-0.33h-0.22l-0.44,0.33
		h-0.33l-0.33-0.22c0,0.22-0.07,0.33-0.22,0.33c-0.15-0.18-0.22-0.33-0.22-0.44c0.07-0.53,0.11-0.82,0.11-0.88l-0.66-0.55h-0.66
		l0.11-0.55l-0.22-0.11c-0.05,0.44-0.2,0.66-0.44,0.66c-0.73-0.27-1.2-0.82-1.42-1.64l0.22-0.11c0.02,0.15,0.09,0.22,0.22,0.22h0.11
		l0.11-0.55h-0.33l-0.22,0.11l-0.33-0.44v-0.11l0.33-0.44c0-0.15-0.07-0.22-0.22-0.22l-0.66,0.11c-0.15,0-0.22-0.07-0.22-0.22
		l0.22-0.33v-0.22c-0.37,0-0.55-0.11-0.55-0.33l0.22-0.33c0-0.8-0.22-1.35-0.66-1.64v-0.11l0.11-0.55h-0.33
		c0,0.22-0.07,0.33-0.22,0.33c-1.6-1.18-2.41-2.17-2.41-2.95v-0.33c0-1.39,1.13-2.73,3.39-4.05c0.38,0,0.6-1.24,0.66-3.72v-1.64
		c-0.31-2.11-0.64-3.17-0.98-3.17c-0.35-0.33-1.26-0.73-2.73-1.2c-0.66-0.36-0.98-1.28-0.98-2.73c0-1.31,0.98-1.97,2.95-1.97
		C290.12,14.77,290.99,14.7,292.74,14.68z M288.04,45.42v0.44h0.11c0.15,0,0.22-0.07,0.22-0.22v-0.22H288.04z M288.26,44.87v0.22
		c0.15,0,0.22-0.07,0.22-0.22H288.26z M289.46,33.71l-0.11,0.22l0.22,0.11l0.11-0.22L289.46,33.71z M290.45,35.14l-0.11,0.22
		l0.22,0.11l0.11-0.22L290.45,35.14z M291.1,35.03l0.22,0.11h0.33v-0.33h-0.33C291.17,34.83,291.1,34.9,291.1,35.03z M291.43,34.15
		l0.22,0.11h0.11c0.11,0,0.22-0.15,0.33-0.44l-0.22-0.11C291.76,33.71,291.61,33.86,291.43,34.15z M291.87,28.68v0.22h0.11v-0.22
		H291.87z M291.98,37.98v0.11c0.02,0.15,0.09,0.22,0.22,0.22l0.22-0.33c0-0.15-0.07-0.22-0.22-0.22
		C292.05,37.78,291.98,37.85,291.98,37.98z M292.41,38.86c0.02,0.15,0.09,0.22,0.22,0.22c0.36-0.09,0.55-0.2,0.55-0.33
		c0-0.15-0.07-0.22-0.22-0.22h-0.22C292.63,38.53,292.52,38.64,292.41,38.86z M292.74,40.06v0.22h0.11v-0.22H292.74z M293.07,40.17
		c0.05,0,0.24,0.18,0.55,0.55c0.15,0,0.22-0.07,0.22-0.22v-0.44l0.11-1.09h-0.44C293.22,39.04,293.07,39.44,293.07,40.17z
		 M293.07,44.21h0.11c0.15,0.02,0.22,0.09,0.22,0.22v0.11h-0.11c-0.15,0-0.22-0.07-0.22-0.22V44.21z M293.62,43.34
		c0.15,0.02,0.22,0.09,0.22,0.22l-0.22,0.11c-0.15,0-0.22-0.07-0.22-0.22L293.62,43.34z M293.84,42.25v0.11h0.11
		c0.18-0.22,0.36-0.33,0.55-0.33v-0.22h-0.11C294.02,41.99,293.84,42.14,293.84,42.25z M295.04,43.56l0.22,0.33v0.33
		c-0.22,0.71-0.4,1.08-0.55,1.09h-0.55v0.22l0.66,0.44v0.11c0,0.11-0.11,0.22-0.33,0.33c-0.09,0-0.27-0.22-0.55-0.66
		c0-0.31,0.04-0.6,0.11-0.88c-0.07-0.29-0.11-0.58-0.11-0.88c0.07,0,0.11-0.04,0.11-0.11l0.22,0.11
		C294.6,43.7,294.86,43.56,295.04,43.56z M294.38,38.96c0.04,0.95,0.15,1.42,0.33,1.42c0.15,0,0.22-0.07,0.22-0.22
		c-0.07-0.38-0.11-0.6-0.11-0.66c0.07-0.13,0.11-0.27,0.11-0.44l-0.22-0.11H294.38z M294.71,41.04c0.02,0.15,0.09,0.22,0.22,0.22
		h0.22v-0.22c0-0.15-0.07-0.22-0.22-0.22C294.78,40.84,294.71,40.92,294.71,41.04z M295.26,41.92v0.11h0.22v-0.11H295.26z
		 M295.37,46.84h0.22v0.22C295.44,47.06,295.37,46.99,295.37,46.84z M295.8,45.31c0.36,0.09,0.55,0.2,0.55,0.33v0.11
		c0,0.11-0.11,0.22-0.33,0.33c0-0.04-0.15-0.22-0.44-0.55C295.6,45.38,295.68,45.31,295.8,45.31z M296.02,21.03
		c0,0.11,0.11,0.22,0.33,0.33h0.33v-0.22c0-0.11-0.11-0.22-0.33-0.33h-0.11C296.1,20.83,296.02,20.9,296.02,21.03z M296.02,43.12
		v0.33h0.22c0.15,0,0.22-0.07,0.22-0.22l-0.22-0.11H296.02z M296.13,18.95c0.02,0.15,0.09,0.22,0.22,0.22h0.22v-0.44h-0.22
		C296.21,18.75,296.13,18.82,296.13,18.95z M296.35,40.06v0.22h0.11v-0.22H296.35z M296.79,40.71v0.44l0.33,0.44
		c-0.29,0.11-0.44,0.22-0.44,0.33v0.44c0.02,0.15,0.09,0.22,0.22,0.22h0.11c0.11,0,0.29-0.36,0.55-1.09c0.07,0,0.11-0.04,0.11-0.11
		v-0.22c0-0.09-0.18-0.27-0.55-0.55C296.97,40.68,296.86,40.71,296.79,40.71z M297.55,25.4v0.11c0.07,0.24,0.22,0.38,0.44,0.44
		v-0.11C297.99,25.73,297.85,25.58,297.55,25.4z M297.55,42.57v0.11h0.33v-0.33h-0.11C297.63,42.37,297.55,42.45,297.55,42.57z
		 M297.88,39.4v0.22c0.02,0.15,0.09,0.22,0.22,0.22h0.22v-0.22c0-0.15-0.07-0.22-0.22-0.22H297.88z M298.43,37.43v0.11h0.22v-0.11
		H298.43z M298.43,44v0.22c0.02,0.15,0.09,0.22,0.22,0.22h0.11l0.11-0.44H298.43z M298.54,39.51v0.44c0.15,0.29,0.36,0.44,0.66,0.44
		l0.11-0.22c-0.22-0.33-0.33-0.62-0.33-0.88h-0.22C298.61,39.31,298.54,39.38,298.54,39.51z M298.76,41.37v0.44h0.33
		c0.15,0,0.22-0.07,0.22-0.22l-0.33-0.22H298.76z M299.85,44.65c0,0.26-0.22,0.44-0.66,0.55c0.25,0.64,0.44,1,0.55,1.09h0.33v-0.55
		c0-0.07,0.07-0.36,0.22-0.88c0-0.15-0.07-0.22-0.22-0.22H299.85z M299.3,44v0.11c0.02,0.15,0.09,0.22,0.22,0.22
		c0.15,0,0.22-0.07,0.22-0.22V44c0-0.15-0.07-0.22-0.22-0.22C299.38,43.8,299.3,43.87,299.3,44z M300.62,18.29
		c0,0.16-0.26,0.31-0.77,0.44l-0.11,0.22c0.22,0,0.33,0.18,0.33,0.55h0.11l0.55-0.11v-0.11l-0.11-0.55c0.15,0,0.22-0.07,0.22-0.22
		C300.84,18.37,300.76,18.29,300.62,18.29z M300.51,38.75c0,0.29-0.18,0.44-0.55,0.44v0.44c0,0.09,0.22,0.27,0.66,0.55h0.22
		c0.11,0,0.25-0.15,0.44-0.44v-0.11h-0.11l-0.33,0.22h-0.11c-0.11,0-0.22-0.11-0.33-0.33l0.11-0.22l0.55,0.11h0.55v-0.11
		c0-0.07-0.26-0.25-0.77-0.55H300.51z M300.4,20.04v0.22h0.33v-0.22H300.4z M301.05,20.48v0.11h0.22v-0.33
		C301.13,20.28,301.05,20.35,301.05,20.48z M301.16,40.39v0.33c0.02,0.15,0.09,0.22,0.22,0.22l0.22-0.66l-0.22-0.11
		C301.24,40.19,301.16,40.26,301.16,40.39z M301.93,23.87c0.15,0.33,0.29,0.51,0.44,0.55h0.11c0.15,0,0.22-0.07,0.22-0.22v-0.33
		c0-0.15-0.11-0.22-0.33-0.22L301.93,23.87z M302.26,40.71l-0.22,0.33c0,0.11,0.22,0.29,0.66,0.55h0.22v-0.77L302.26,40.71z
		 M302.37,42.79v0.11c0,0.44,0.25,0.66,0.77,0.66l-0.11-0.44v-0.33c-0.22,0-0.33-0.07-0.33-0.22h-0.11
		C302.44,42.59,302.37,42.67,302.37,42.79z M302.8,24.75h0.22v-0.22C302.88,24.55,302.8,24.62,302.8,24.75z M302.91,45.31v0.22
		c0.02,0.15,0.09,0.22,0.22,0.22l0.11-0.22v-0.22H302.91z M303.24,25.18c0.02,0.15,0.09,0.22,0.22,0.22h0.44v-0.33
		c0-0.15-0.07-0.22-0.22-0.22h-0.11C303.46,24.86,303.35,24.96,303.24,25.18z M303.79,46.18v0.11h0.22v-0.11H303.79z M304.55,46.84
		v0.11h0.22v-0.11H304.55z M306.96,43.78V44h0.44v-0.22c0-0.15-0.07-0.22-0.22-0.22C307.03,43.58,306.96,43.65,306.96,43.78z"/>
	<path class="st0" d="M324,14.41h1.09v0.22c0,0.22-0.22,0.33-0.66,0.33c0,0.2,0.07,0.42,0.22,0.66c-0.07,0.15-0.11,0.26-0.11,0.33
		l0.11,0.55h0.22c0.29-0.73,0.47-1.09,0.55-1.09h0.33v-0.22l-0.22-0.33v-0.22c0.02-0.15,0.09-0.22,0.22-0.22h0.22
		c0.78,0,1.33,0.26,1.64,0.77v0.77c0.29,0.04,0.44,0.15,0.44,0.33c-0.11,0-0.22,0.11-0.33,0.33c0.11,0,0.22,0.11,0.33,0.33v0.33
		c-0.58,0.53-0.88,0.82-0.88,0.88v0.11c0.02,0.15,0.09,0.22,0.22,0.22l0.33-0.22v0.22c0,0.36-0.44,0.69-1.31,0.98
		c0-0.11-0.11-0.22-0.33-0.33c-0.02,0.35-0.38,0.75-1.09,1.2c0.15-0.55,0.22-0.88,0.22-0.98c-0.09,0-0.27,0.26-0.55,0.77h-0.11v0.33
		l0.22,0.33c-0.15,0-0.33,0.47-0.55,1.42c-0.38,0-0.67,0.22-0.88,0.66v0.11c0.02,0.15,0.09,0.22,0.22,0.22h0.33
		c0-0.44,0.11-0.66,0.33-0.66c0,0.07,0.04,0.11,0.11,0.11l-0.11,0.77c0.07,1.46,0.11,2.26,0.11,2.41h-0.66l-0.22-0.11l-0.11,0.22V26
		c0.13,0,0.31,0.11,0.55,0.33h0.22V26h0.22v0.44l-0.98,1.64c-0.44,0-0.66,0.07-0.66,0.22v0.11h0.66l0.33,0.22h0.11
		c0.15,0,0.25-0.36,0.33-1.09h0.22l0.11,0.55v1.53c0,0.62,0.07,1.09,0.22,1.42l-0.22,0.11c-0.15,0-0.22-0.07-0.22-0.22v-0.44
		l0.11-0.22l-0.22-0.11h-0.22v1.42H324l0.55-0.11l0.11,0.22v1.53c0,0.16-0.04,0.31-0.11,0.44c0.15,0.27,0.22,0.57,0.22,0.88v2.52
		c0,0.07-0.04,0.11-0.11,0.11c0.07,0.15,0.11,0.26,0.11,0.33c0,2.24,0.47,3.63,1.42,4.16c1.82,0.58,2.73,1.24,2.73,1.97
		c0.07,0,0.11,0.04,0.11,0.11v0.11h-0.33v0.11l0.11,0.22l0.22-0.11h0.11v0.98c0,0.67-0.15,1.22-0.44,1.64v1.09
		c-0.73,0.36-1.09,1.09-1.09,2.19v4.16c-0.22,1.46-0.69,2.19-1.42,2.19c-1.09-0.33-1.64-0.91-1.64-1.75v-0.44
		c0-0.42,0.07-1.48,0.22-3.17c0-1.11-0.44-1.77-1.31-1.97h-0.33c-0.89,0-1.59,0.51-2.08,1.53c-0.09,2.84-0.35,4.27-0.77,4.27h-0.55
		c-0.37,0-0.62-1.31-0.77-3.94c-0.51-1.09-1.09-1.64-1.75-1.64h-0.44c-0.58,0-1.24,0.33-1.97,0.98h-0.33
		c-0.27-0.04-0.6-0.77-0.98-2.19h-0.33l-0.98,0.77h-0.55c-0.57-0.66-1.22-0.98-1.97-0.98c-0.29-0.69-0.44-1.09-0.44-1.2l0.11-0.22
		c-0.15,0-0.26-0.36-0.33-1.09c0-1.15,0.88-1.99,2.63-2.52c0.88-0.55,1.31-1.71,1.31-3.5h0.11l-0.11-0.22v-2.84
		c0-0.07,0.04-0.11,0.11-0.11l-0.11-0.22c0.07-0.15,0.11-0.25,0.11-0.33c-0.11,0-0.22-0.11-0.33-0.33v-1.75
		c0.35,0,0.6-0.07,0.77-0.22c0.15,0.02,0.22,0.09,0.22,0.22c-0.29,0.31-0.44,0.6-0.44,0.88l0.11,0.22c0.44-0.15,0.66-0.29,0.66-0.44
		v-0.77L313.82,33l-0.22,0.11h-0.11l-0.33-0.22l-0.33,0.22h-0.11c0-0.16-0.04-0.31-0.11-0.44c0.07-1,0.11-1.62,0.11-1.86
		c0-0.47-0.04-1.09-0.11-1.86c0-0.16,0.04-0.56,0.11-1.2c-0.07-1.35-0.11-2.81-0.11-4.38v-0.11l-0.66-1.86
		c-0.75-0.73-1.66-1.09-2.73-1.09c-0.73-0.46-1.09-1.18-1.09-2.19v-0.98c0-0.07,0.04-0.11,0.11-0.11l-0.11-0.22
		c0.31-1.09,0.89-1.64,1.75-1.64c0.44,0,1.02-0.07,1.75-0.22c3.28-0.07,5.14-0.11,5.58-0.11c0.24-0.15,0.46-0.22,0.66-0.22h1.09
		c0.62,0,1.6-0.04,2.95-0.11c0,0.18,0.29,0.66,0.88,1.42h0.11l0.55-0.44h0.22l0.44,0.33c0.15,0,0.22-0.07,0.22-0.22
		c-1.13-0.53-1.71-0.86-1.75-0.98v-0.11h0.77l0.33,0.22h0.11C323.78,14.52,323.85,14.41,324,14.41z M312.18,19.99v0.11h0.22v-0.11
		H312.18z M313.39,28.74l-0.11,0.22c0.02,0.15,0.09,0.22,0.22,0.22l0.11-0.22C313.61,28.81,313.53,28.74,313.39,28.74z M313.5,37.93
		v0.11c0.02,0.15,0.09,0.22,0.22,0.22l0.11-0.22l-0.22-0.11H313.5z M313.61,22.5v0.11h0.22V22.5H313.61z M313.61,29.61
		c0,0.16,0.04,0.31,0.11,0.44c-0.07,0.13-0.11,0.27-0.11,0.44h0.55v-0.88H313.61z M313.82,46.46l-0.11,0.22h0.33
		C314.04,46.53,313.97,46.46,313.82,46.46z M313.93,31.04v0.22c0.16,0,0.38,0.11,0.66,0.33c0.15-0.24,0.22-0.46,0.22-0.66
		c0-0.15-0.07-0.22-0.22-0.22C314.15,30.74,313.93,30.85,313.93,31.04z M314.15,22.18v0.11h0.22v-0.11H314.15z M314.15,37.27v0.44
		h0.22c0.11,0,0.22-0.11,0.33-0.33l-0.22-0.11H314.15z M314.37,32.24v0.11c0.02,0.15,0.09,0.22,0.22,0.22l0.11-0.22l-0.22-0.11
		H314.37z M314.37,34.43v0.22h0.22v-0.22H314.37z M314.7,45.91v0.22h0.33v-0.22H314.7z M314.81,35.74c0.02,0.15,0.09,0.22,0.22,0.22
		l0.55-0.11v-0.33L314.81,35.74z M315.25,31.14v0.77h0.33l0.11-0.55c0-0.15-0.07-0.22-0.22-0.22H315.25z M315.36,32.13l-0.11,0.22
		c0,0.38,0.15,0.64,0.44,0.77h0.22l0.11-0.55C315.94,32.27,315.72,32.13,315.36,32.13z M318.31,28.52l-0.11,0.55
		c0.11,0,0.22,0.11,0.33,0.33l-0.22,0.11h-0.11l-0.44-0.33h-0.11c-0.05,0.8-0.16,1.2-0.33,1.2c-0.13-0.07-0.27-0.11-0.44-0.11
		l0.22,1.31c-0.11,0.29-0.22,0.44-0.33,0.44l-0.11-0.22v-1.31h-0.33v-0.11c0.29-0.44,0.58-0.66,0.88-0.66v-0.44h-0.11
		c-0.13,0-0.49,0.15-1.09,0.44v0.33l0.22,0.33c-0.22,0.07-0.33,0.29-0.33,0.66v0.98l0.66,0.44v0.11l-0.11,0.55l0.44,0.33l0.22-0.11
		L317,32.79v-0.22c0-0.11,0.25-0.29,0.77-0.55c0-0.22,0.07-0.33,0.22-0.33c0.13,0,0.24,0.22,0.33,0.66
		c-0.07,0.15-0.11,0.26-0.11,0.33l0.11,0.55h0.22c0.09,0,0.24-0.29,0.44-0.88v-0.11c-0.29,0-0.47-0.18-0.55-0.55
		c0-0.8,0.25-1.2,0.77-1.2v-0.33C318.71,29.07,318.42,28.52,318.31,28.52z M317.11,33.88c0.02,0.15,0.09,0.22,0.22,0.22h0.11
		c0-0.15-0.07-0.22-0.22-0.22H317.11z M317.21,42.41v0.11h0.22v-0.33C317.29,42.21,317.21,42.28,317.21,42.41z M317.87,33.66v0.44
		h0.33v-0.44H317.87z M318.64,29.94l0.11,0.22v0.11c0,0.15-0.07,0.22-0.22,0.22l-0.11-0.22v-0.11
		C318.44,30.01,318.51,29.94,318.64,29.94z M318.86,38.36v0.22h0.22v-0.22H318.86z M319.51,29.07h0.33c0.11,0,0.22-0.11,0.33-0.33
		c0-0.15-0.07-0.22-0.22-0.22C319.8,28.56,319.66,28.74,319.51,29.07z M319.73,31.58l-0.11,0.22l0.11,0.55h0.22
		c0.15,0,0.22-0.07,0.22-0.22C319.99,31.76,319.84,31.58,319.73,31.58z M320.5,27.21v0.33h0.22c0.15,0,0.22-0.07,0.22-0.22v-0.33
		h-0.22C320.57,27.01,320.5,27.08,320.5,27.21z M320.5,31.25c0,0.11,0.11,0.22,0.33,0.33l0.11-0.22v-0.44h-0.11
		C320.71,30.93,320.61,31.04,320.5,31.25z M320.82,32.13l-0.11,0.22v0.88h0.11c0.15,0,0.25-0.29,0.33-0.88L320.82,32.13z
		 M321.15,21.19v0.11c0.15,0.18,0.22,0.36,0.22,0.55h0.22c0.15,0,0.22-0.07,0.22-0.22v-0.22c-0.18,0-0.37-0.07-0.55-0.22H321.15z
		 M321.48,28.74v0.11c0,0.11,0.11,0.22,0.33,0.33c0.15,0,0.22-0.07,0.22-0.22v-0.44h-0.33C321.55,28.54,321.48,28.61,321.48,28.74z
		 M321.59,22.29v0.33h0.33v-0.33H321.59z M321.59,28.08l0.22,0.11h0.11c0.15,0,0.22-0.07,0.22-0.22c0-0.15-0.07-0.22-0.22-0.22
		C321.81,27.75,321.7,27.86,321.59,28.08z M321.59,33.55v0.22h0.22v-0.22H321.59z M321.81,41.32v0.22h0.22v-0.22H321.81z
		 M322.14,31.8v0.22c0.15,0.16,0.22,0.42,0.22,0.77h0.88c0-0.44-0.22-0.66-0.66-0.66V31.8H322.14z M322.25,29.5v0.22h0.22V29.5
		H322.25z M322.9,29.94v0.11c0.15,0.24,0.22,0.42,0.22,0.55l-0.22,0.11h-0.55v0.33c0,0.11,0.11,0.22,0.33,0.33h0.33
		c0.11,0,0.22-0.11,0.33-0.33v-0.22c0-0.55-0.11-0.84-0.33-0.88H322.9z M322.36,34.64v0.11c0.02,0.15,0.09,0.22,0.22,0.22v-0.33
		H322.36z M322.36,40v0.22h0.33V40H322.36z M322.57,23.38v0.22h0.44v-0.22H322.57z M322.9,21.96v0.11c0.02,0.15,0.09,0.22,0.22,0.22
		h0.11v-0.11c0-0.15-0.07-0.22-0.22-0.22H322.9z M322.9,33.66c0.02,0.15,0.09,0.22,0.22,0.22v-0.22H322.9z M323.12,16.82v0.11
		c0,0.15,0.29,0.33,0.88,0.55v0.22l-0.11,0.55h0.22c0.15,0,0.22-0.07,0.22-0.22v-0.33c0-0.58-0.37-0.88-1.09-0.88H323.12z
		 M323.23,18.89V19c0.02,0.15,0.09,0.22,0.22,0.22h0.22v-0.33H323.23z M323.23,31.58v0.22c0,0.11,0.15,0.22,0.44,0.33l0.11-0.22
		c0-0.11-0.11-0.22-0.33-0.33H323.23z M323.34,34.64l-0.11,0.22h0.33C323.56,34.72,323.49,34.64,323.34,34.64z M323.56,24.04v0.22
		c0.07,0,0.18,0.04,0.33,0.11l0.11-0.22v-0.11c0-0.15-0.07-0.22-0.22-0.22C323.63,23.83,323.56,23.91,323.56,24.04z M323.89,16.16
		c0.02,0.15,0.09,0.22,0.22,0.22l0.11-0.22H323.89z M324,21.19h0.33v-0.22h-0.11C324.07,20.99,324,21.06,324,21.19z M324.11,44.27
		v0.22h0.22v-0.22H324.11z M324.32,19v0.11h0.22V19H324.32z M324.65,45.14v0.11c0.02,0.15,0.09,0.22,0.22,0.22h0.11v-0.11
		c0-0.15-0.07-0.22-0.22-0.22H324.65z M325.09,16.6l0.11,0.22c0,0.07-0.04,0.18-0.11,0.33c0.07,0.4,0.11,0.73,0.11,0.98h0.44
		c0.15,0,0.22-0.07,0.22-0.22l-0.33-0.55l0.33-0.55l-0.11-0.66h-0.11C325.27,16.34,325.09,16.49,325.09,16.6z M325.42,18.46V19h0.33
		v-0.55H325.42z M326.62,15.83c0,0.04-0.04,0.18-0.11,0.44h0.11c0.36-0.09,0.55-0.2,0.55-0.33l-0.22-0.11H326.62z M326.62,14.85
		v0.11h0.22v-0.11H326.62z M326.84,16.71v0.33h0.55v-0.22c0-0.11-0.11-0.22-0.33-0.33C326.91,16.51,326.84,16.58,326.84,16.71z
		 M326.95,43.07v0.22h0.33v-0.22H326.95z M335.59,24.91c0.15,0.16,0.22,0.38,0.22,0.66h0.22c0.15,0,0.22-0.07,0.22-0.22l-0.22-0.33
		l0.22-0.11h0.22c0.33,0.22,0.66,0.33,0.98,0.33c0-0.07,0.04-0.11,0.11-0.11l0.11,0.22c0,0.11-0.11,0.22-0.33,0.33
		c-0.13-0.07-0.27-0.11-0.44-0.11v0.88c0,0.22-0.15,0.33-0.44,0.33v0.22l0.22,0.33c-0.15,0.02-0.22,0.09-0.22,0.22v0.11
		c0,0.11,0.11,0.22,0.33,0.33c0-0.07,0.04-0.11,0.11-0.11c1.17,1.4,1.75,2.21,1.75,2.41c0,0.24,0.04,0.42,0.11,0.55l0.22-0.11h0.22
		c0.11,0,0.33,0.22,0.66,0.66l-0.22,0.33l0.11,0.22l0.22-0.11h0.11c0.58,0.44,0.88,0.8,0.88,1.09c-0.18,0-0.29,0.15-0.33,0.44
		c0,0.62,0.18,0.95,0.55,0.98c0,0.26,0.15,0.44,0.44,0.55h0.44l0.22-0.11l0.11,0.22v0.22c-0.11,0.29-0.37,0.44-0.77,0.44l-0.55-0.11
		v0.11c0.07,0.15,0.11,0.26,0.11,0.33l-0.44,0.33l0.11,0.22v0.11l-0.11,1.09h0.55c0-0.42,0.25-0.78,0.77-1.09
		c0,0.07,0.04,0.11,0.11,0.11l-0.11,0.55v0.11c0,0.11,0.11,0.22,0.33,0.33h0.33v-0.33l-0.22-0.33v-0.11c0-0.11,0.15-0.25,0.44-0.44
		l0.77,1.42h0.11l0.55-0.11l0.44,1.09c-0.8,0.47-1.2,0.77-1.2,0.88h-0.11l-0.44-0.55v-0.22h0.33v0.22h0.22
		c0.11,0,0.22-0.11,0.33-0.33v-0.22c-0.31,0-0.64-0.22-0.98-0.66h-0.11l-0.33,0.22l-0.44-0.22c-0.37,0.22-0.62,0.33-0.77,0.33
		c-0.07-0.22-0.29-0.33-0.66-0.33l-0.11,0.22c0.07,0.15,0.11,0.26,0.11,0.33l0.55-0.11l0.11,0.22l-0.11,0.55
		c0.46,0.13,0.82,0.42,1.09,0.88c0.22,0,0.33,0.07,0.33,0.22l-0.55,0.77v0.22c0.02,0.15,0.09,0.22,0.22,0.22l0.33-0.22
		c0.8,0,1.2,0.33,1.2,0.98c-0.31,0.29-0.6,0.44-0.88,0.44l-0.11-0.22c0.13-0.07,0.27-0.11,0.44-0.11v-0.55h-0.11
		c-0.53,0-0.82,0.29-0.88,0.88h-0.22v0.44c0.29,0,0.44,0.04,0.44,0.11l0.22-0.11c0.16,0,0.38,0.44,0.66,1.31
		c-0.11,0-0.22,0.11-0.33,0.33v0.22h0.11c0.44,0,0.77-0.22,0.98-0.66v-0.33c-0.37,0-0.55-0.4-0.55-1.2h0.11
		c0.15,0,0.22,0.11,0.22,0.33h0.33l0.55-0.11l0.22,0.33v0.11l-0.44,0.66v0.11l0.22,0.33v0.55H345c0.04-0.29,0.15-0.44,0.33-0.44
		c0.58,0.15,0.88,0.44,0.88,0.88c0.04,0.29,0.15,0.44,0.33,0.44h0.22c0-0.07,0.04-0.18,0.11-0.33c-0.18-0.58-0.4-0.88-0.66-0.88
		l0.11-0.22c0-0.22-0.07-0.51-0.22-0.88c0.09-0.44,0.2-0.66,0.33-0.66c0.22,0,0.4,0.36,0.55,1.09v0.33c0.44,0,0.66,0.07,0.66,0.22
		v0.11c0,0.47-0.4,1.06-1.2,1.75h-1.09l-0.22,0.11c-0.07-0.22-0.29-0.33-0.66-0.33l-0.44,0.33l-10.28,0.44
		c-1.53,0-2.3-0.62-2.3-1.86c-0.15-0.18-0.22-0.33-0.22-0.44c0-1.55,0.36-2.72,1.09-3.5l0.11-0.55c0-0.62-1.53-2.63-4.59-6.02
		c-0.22-0.55-0.33-0.95-0.33-1.2c0.29-0.11,0.44-0.22,0.44-0.33V33c-0.4,0-0.66-0.29-0.77-0.88v-0.44c0-0.07,0.04-0.11,0.11-0.11
		c-0.07-0.09-0.15-0.6-0.22-1.53c0.24-0.22,0.46-0.33,0.66-0.33v-0.33c-0.22,0-0.4-0.15-0.55-0.44v-0.22
		c0.02-0.15,0.09-0.22,0.22-0.22l0.22,0.11l0.11-0.22c0-0.16-0.04-0.31-0.11-0.44c0-0.29,0.4-0.8,1.2-1.53l0.33,0.22
		c0.15,0,0.22-0.07,0.22-0.22v-0.11l-0.11-0.55l0.33-0.22h0.22c0,0.29,0.18,0.44,0.55,0.44c0.09-0.44,0.2-0.66,0.33-0.66
		c0.11,0,0.22,0.11,0.33,0.33v0.11l-0.22,0.33c0.35,0.27,0.67,0.67,0.98,1.2c0.15,0,0.22-0.07,0.22-0.22
		c-0.07-0.13-0.11-0.27-0.11-0.44c0.09,0,0.27-0.22,0.55-0.66h0.22c0.15,0.02,0.22,0.09,0.22,0.22c-0.29,0.33-0.44,0.51-0.44,0.55
		v0.11c0.22,0,0.33,0.07,0.33,0.22c-0.4,0.35-0.69,0.89-0.88,1.64h-0.22c-0.15,0-0.22-0.07-0.22-0.22v-0.55h-0.22
		c0,0.38-0.11,0.67-0.33,0.88v0.55c0,0.24,0.11,0.49,0.33,0.77v0.55h0.22c0.24-0.22,0.42-0.33,0.55-0.33v-0.22
		c-0.22,0-0.4-0.15-0.55-0.44c0.36-0.18,0.55-0.4,0.55-0.66v-0.33l0.77,0.11c-0.22-0.24-0.33-0.42-0.33-0.55
		c0.15-0.33,0.29-0.51,0.44-0.55c0.11,0,0.25,0.15,0.44,0.44c0,0.15-0.11,0.22-0.33,0.22v0.22h0.44c0-0.47,0.11-0.73,0.33-0.77h0.11
		c0,0.13,0.15,0.38,0.44,0.77h0.55c0-0.22,0.07-0.33,0.22-0.33c0.22,0.33,0.33,0.55,0.33,0.66h0.11c0.18,0,0.29-0.29,0.33-0.88
		c-0.51,0-0.77-0.11-0.77-0.33c0.07-0.15,0.11-0.25,0.11-0.33h0.11l0.55,0.44h0.22l0.11-0.44l-0.55-0.33L335.7,26v-0.22l-0.44-0.44
		C335.37,25.06,335.48,24.91,335.59,24.91z M327.5,42.96l0.22,0.11h0.22v-0.33h-0.22C327.57,42.76,327.5,42.83,327.5,42.96z
		 M327.93,27.64v0.22c0.29,0.36,0.44,0.62,0.44,0.77c0.07,0,0.36-0.04,0.88-0.11l0.55,0.11c0-0.38-0.37-0.64-1.09-0.77
		c0-0.29-0.07-0.44-0.22-0.44h-0.33C328.01,27.44,327.93,27.52,327.93,27.64z M328.15,30.49v0.22c0.15,0,0.22-0.07,0.22-0.22H328.15
		z M328.15,44.49c0.02,0.15,0.09,0.22,0.22,0.22v-0.22H328.15z M328.59,28.08l0.11,0.22l-0.22,0.11h-0.11V28.3
		C328.39,28.16,328.46,28.08,328.59,28.08z M328.37,31.04v0.55c0.15,0,0.22-0.07,0.22-0.22v-0.33H328.37z M328.48,31.8l-0.11,0.22
		v0.22h0.33v-0.22C328.7,31.87,328.63,31.8,328.48,31.8z M328.81,28.74v0.88l0.22,0.77h0.22c0.15,0,0.22-0.11,0.22-0.33l-0.11-0.55
		c0.07-0.29,0.11-0.55,0.11-0.77H328.81z M329.03,27.21v0.33c0.13,0,0.31,0.11,0.55,0.33h0.22v-0.33c0-0.11-0.11-0.22-0.33-0.33
		H329.03z M330.01,28.52c0,0.11-0.07,0.26-0.22,0.44l0.22,0.77c-0.07,0-0.11,0.04-0.11,0.11l0.22,0.11h0.11v-1.31L330.01,28.52z
		 M330.01,26.77c0.07,0.53,0.15,0.86,0.22,0.98c0.44-0.09,0.66-0.2,0.66-0.33c-0.18,0-0.37-0.29-0.55-0.88h-0.11
		C330.08,26.57,330.01,26.64,330.01,26.77z M330.67,24.25h0.11c0,0.53-0.11,0.82-0.33,0.88l-0.11-0.22v-0.33
		C330.34,24.47,330.45,24.36,330.67,24.25z M330.89,32.46v0.33h0.33v-0.33H330.89z M331.98,23.71c0.29,0.11,0.44,0.22,0.44,0.33
		v0.11l-0.44,0.44l0.11,0.22c-0.09,0.44-0.2,0.66-0.33,0.66c-0.37-0.18-0.55-0.47-0.55-0.88c0.36-0.27,0.55-0.49,0.55-0.66
		C331.78,23.78,331.85,23.71,331.98,23.71z M331.54,25.89h0.11c0.15,0.02,0.22,0.09,0.22,0.22l-0.22,0.11h-0.11
		c-0.15,0-0.22-0.07-0.22-0.22L331.54,25.89z M332.09,22.29h0.11v0.22h0.11l0.55-0.11l0.11,0.22l-0.11,0.66
		c-0.66-0.51-0.98-0.8-0.98-0.88L332.09,22.29z M331.87,31.25v0.11c0.02,0.15,0.09,0.22,0.22,0.22c0.15-0.07,0.25-0.11,0.33-0.11
		v-0.33L331.87,31.25z M332.09,32.89v0.22h0.22v-0.22H332.09z M332.53,34.97v0.11h0.22v-0.11H332.53z M333.07,24.8
		c0.15,0.02,0.22,0.09,0.22,0.22c0,0.15-0.07,0.22-0.22,0.22c-0.15,0-0.22-0.07-0.22-0.22C332.87,24.87,332.95,24.8,333.07,24.8z
		 M334.06,16.16c0.07,0.15,0.11,0.26,0.11,0.33c0,0.22-0.29,0.51-0.88,0.88c-0.15-0.24-0.22-0.46-0.22-0.66
		C333.07,16.58,333.4,16.4,334.06,16.16z M333.07,32.89v0.22h0.22v-0.22H333.07z M333.29,20.86h0.22v0.11h-0.22V20.86z
		 M333.51,25.89l0.11,0.22v0.11c0,0.15-0.07,0.22-0.22,0.22l-0.11-0.22v-0.11C333.31,25.97,333.38,25.89,333.51,25.89z
		 M334.28,14.85c0.18,0,0.33,0.29,0.44,0.88l-0.22,0.11l-0.55-0.11c-0.24,0.15-0.42,0.22-0.55,0.22v-0.11
		c0.02-0.15,0.09-0.22,0.22-0.22l-0.11-0.22C333.51,15.29,333.77,15.1,334.28,14.85z M333.4,33.66c0.02,0.15,0.09,0.22,0.22,0.22
		v-0.22H333.4z M334.93,20.86h0.11c0.22,0,0.33,0.18,0.33,0.55h0.11l0.44-0.33c0.66,0.2,0.98,0.35,0.98,0.44l-0.22,0.33l0.22,0.33
		v0.11c0,0.15-0.07,0.22-0.22,0.22h-0.11c-0.33-0.36-0.55-0.55-0.66-0.55c0,0.15-0.07,0.22-0.22,0.22l-0.22-0.11
		c-0.15,0.07-0.26,0.11-0.33,0.11v0.55c-0.02,0.15-0.38,0.33-1.09,0.55c-0.07,0-0.26-0.18-0.55-0.55c0.02-0.15,0.09-0.22,0.22-0.22
		l0.33,0.22c0.11-0.29,0.22-0.44,0.33-0.44h0.33c0-0.36,0.15-0.55,0.44-0.55v-0.33c-0.29,0-0.44-0.07-0.44-0.22v-0.11
		C334.73,20.94,334.81,20.86,334.93,20.86z M334.28,17.58l0.11,0.22c-0.37,0.27-0.55,0.46-0.55,0.55h-0.22v-0.11L334.28,17.58z
		 M333.84,24.14c0.15,0.02,0.22,0.09,0.22,0.22l-0.22,0.11c-0.15,0-0.22-0.07-0.22-0.22L333.84,24.14z M333.62,35.19v0.11h0.22
		v-0.11H333.62z M334.82,18.24c0.16,0,0.27,0.18,0.33,0.55h-1.09c-0.15,0-0.22-0.07-0.22-0.22v-0.11l0.55,0.11L334.82,18.24z
		 M334.17,21.19c0.15,0.02,0.22,0.09,0.22,0.22v0.11c0,0.11-0.15,0.26-0.44,0.44l-0.11-0.22C333.93,21.37,334.04,21.19,334.17,21.19
		z M334.06,25.46h0.11L334.06,26h-0.22v-0.33C333.86,25.53,333.93,25.46,334.06,25.46z M333.95,36.18v0.11
		c0.02,0.15,0.09,0.22,0.22,0.22l0.11-0.22l-0.22-0.11H333.95z M334.28,29.39v0.33h0.55c0-0.29,0.15-0.44,0.44-0.44v-0.33h-0.11
		C334.84,29.25,334.55,29.39,334.28,29.39z M334.82,19l0.11,0.22v0.22c0,0.15-0.07,0.22-0.22,0.22c-0.15,0-0.22-0.07-0.22-0.22
		v-0.11C334.5,19.22,334.61,19.11,334.82,19z M334.71,26.22l0.11,0.22v0.22c0,0.15-0.07,0.22-0.22,0.22l-0.11-0.22v-0.22
		C334.51,26.3,334.59,26.22,334.71,26.22z M334.61,33.22v0.11c0.02,0.15,0.09,0.22,0.22,0.22h0.11v-0.33H334.61z M335.04,15.94
		l0.11,0.22v0.11c0,0.15-0.07,0.22-0.22,0.22l-0.11-0.22v-0.11C334.84,16.01,334.92,15.94,335.04,15.94z M334.82,32.35v0.11h0.22
		v-0.11H334.82z M335.04,30.05l-0.11,0.55h0.11c0.73-0.05,1.09-0.16,1.09-0.33v-0.11l-0.55,0.11l-0.33-0.22H335.04z M334.93,31.69
		v0.22h0.33v-0.44h-0.11C335.01,31.49,334.93,31.56,334.93,31.69z M344.67,13.54c1.68,0,2.52,0.8,2.52,2.41
		c0,2.11-0.98,3.17-2.95,3.17c-1.35,0-2.33,0.4-2.95,1.2c-0.89,1.24-1.4,1.86-1.53,1.86c-0.07,0-0.37,0.07-0.88,0.22
		c-0.29-0.22-0.44-0.44-0.44-0.66h-0.33c0,0.22-0.07,0.33-0.22,0.33l-0.77-0.55c0-0.13-0.18-0.46-0.55-0.98
		c0.42-0.11,0.75-0.25,0.98-0.44h0.22c0.15,0,0.22,0.15,0.22,0.44h0.33v-0.22l-0.22-0.33c0.15,0,0.22-0.11,0.22-0.33
		c0-0.2-0.37-0.42-1.09-0.66c0-0.07-0.04-0.11-0.11-0.11c-0.15,0-0.4,0.07-0.77,0.22l0.11,0.22v0.44c0,0.09-0.18,0.27-0.55,0.55
		c-0.29-0.11-0.44-0.22-0.44-0.33v-0.11c0.36-0.58,0.62-0.88,0.77-0.88v-0.44l0.11-0.55c-0.15,0-0.22-0.07-0.22-0.22
		c0.02-0.15,0.09-0.22,0.22-0.22h0.11c0.15,0,0.25,0.26,0.33,0.77h0.33c0.15,0,0.22-0.07,0.22-0.22V17.8
		c-0.37-0.29-0.55-0.55-0.55-0.77h-0.11l-0.55,0.11l-0.11-0.22v-0.11c0-0.11,0.11-0.22,0.33-0.33h0.11l0.44,0.33
		c0.15,0,0.22-0.07,0.22-0.22c-0.27-0.02-0.53-0.35-0.77-0.98V15.5h0.22v-0.33c0-0.15-0.07-0.22-0.22-0.22h-0.22
		c-0.15,0.02-0.22,0.09-0.22,0.22v0.33c0.22,0,0.33,0.07,0.33,0.22l-0.55,0.44l-0.11-0.22l0.22-0.33v-0.22h-0.11l-0.55,0.11v-0.44
		c0.36-0.2,0.55-0.35,0.55-0.44l0.11-0.66c-0.07,0-0.11-0.04-0.11-0.11c0.15-0.07,0.55-0.15,1.2-0.22l0.11,0.22v0.11l-0.55,0.44
		v0.22c0.13,0,0.31,0.07,0.55,0.22v-0.11l-0.11-0.22c0.13-0.07,0.31-0.11,0.55-0.11l-0.11-0.55c0.15,0,0.22-0.07,0.22-0.22
		l0.55,0.11c0.07,0,0.18-0.04,0.33-0.11l0.44,0.11c0.98-0.07,1.71-0.11,2.19-0.11v0.11l-0.11,0.66l0.22,0.11h0.11v-0.66
		c0.02-0.15,0.09-0.22,0.22-0.22C343.1,13.57,344.16,13.54,344.67,13.54z M335.37,17.8l0.22,0.33l-0.22,0.11l-0.22-0.33L335.37,17.8
		z M335.48,30.71c0,0.13,0.11,0.42,0.33,0.88h0.33c0-0.07,0.04-0.18,0.11-0.33c-0.15-0.33-0.29-0.51-0.44-0.55H335.48z
		 M335.81,34.21v0.44h0.22c0.15,0,0.22-0.07,0.22-0.22c0-0.15-0.07-0.22-0.22-0.22H335.81z M336.57,23.05h0.22
		c0.15,0.02,0.22,0.09,0.22,0.22c-0.13,0.42-0.35,0.75-0.66,0.98l-0.22-0.33C336.32,23.34,336.46,23.05,336.57,23.05z M336.25,26
		h0.22v-0.22C336.32,25.8,336.25,25.88,336.25,26z M336.68,29.72v0.44h0.44v-0.22c0-0.15-0.07-0.22-0.22-0.22H336.68z M336.79,15.5
		v0.33h0.33V15.5H336.79z M337.01,19.33l0.11,0.22c0,0.15-0.07,0.22-0.22,0.22l-0.11-0.22C336.81,19.41,336.88,19.33,337.01,19.33z
		 M336.9,31.14v0.11c0,0.16,0.04,0.31,0.11,0.44c-0.15,0.24-0.22,0.42-0.22,0.55l0.88,0.55c0.15,0,0.22-0.07,0.22-0.22v-0.11
		c0-0.11-0.22-0.33-0.66-0.66l0.11-0.55v-0.11H336.9z M337.23,22.5h0.98c0.11,0,0.22,0.11,0.33,0.33c-0.15,0.07-0.47,0.15-0.98,0.22
		c-0.37-0.09-0.55-0.2-0.55-0.33C337.03,22.58,337.1,22.5,337.23,22.5z M337.45,16.71v0.11c0.02,0.15,0.09,0.22,0.22,0.22h0.22
		c0-0.11-0.11-0.22-0.33-0.33H337.45z M337.67,14.74l0.11,0.55H338l-0.11-0.55H337.67z M337.67,15.72v0.11
		c0.02,0.15,0.09,0.22,0.22,0.22H338c0.15,0,0.22-0.07,0.22-0.22c-0.15,0-0.22-0.11-0.22-0.33h-0.11
		C337.74,15.52,337.67,15.6,337.67,15.72z M337.67,29.61v0.33H338v-0.33H337.67z M337.78,18.13v0.11c0.02,0.15,0.09,0.22,0.22,0.22
		c0.15-0.07,0.25-0.11,0.33-0.11v-0.44H338C337.85,17.93,337.78,18,337.78,18.13z M338.11,23.71h0.22v0.33h-0.22
		c-0.15,0-0.22-0.07-0.22-0.22L338.11,23.71z M338.11,24.36h0.22v0.11h-0.22V24.36z M338.43,15.29v0.11c0,0.11,0.11,0.22,0.33,0.33
		c0.15-0.29,0.22-0.51,0.22-0.66h-0.33C338.51,15.08,338.43,15.16,338.43,15.29z M338.98,23.27h0.11c0,0.09-0.18,0.27-0.55,0.55
		h-0.11C338.43,23.73,338.62,23.54,338.98,23.27z M338.54,36.18v0.33h0.22c0.15,0,0.22-0.07,0.22-0.22v-0.11H338.54z M338.65,43.5
		h0.22v-0.22C338.72,43.3,338.65,43.38,338.65,43.5z M338.98,17.47v0.11l0.22,0.33v0.11c0,0.15-0.15,0.22-0.44,0.22v0.11
		c0.29,0,0.44,0.07,0.44,0.22c0.29-0.11,0.44-0.22,0.44-0.33c0-0.07-0.04-0.11-0.11-0.11l0.11-0.55v-0.11l-0.22-0.33
		C339.13,17.25,338.98,17.36,338.98,17.47z M339.09,16.27c0.02,0.15,0.09,0.22,0.22,0.22h0.22v-0.44h-0.22
		C339.16,16.07,339.09,16.14,339.09,16.27z M339.2,18.68l-0.11,0.22l0.11,0.55h0.33v-0.11C339.53,18.95,339.42,18.73,339.2,18.68z
		 M339.2,45.25v0.22h0.22v-0.22H339.2z M339.31,14.08v0.22h0.22v-0.22H339.31z M339.53,21.19v0.11c0.11,0.29,0.22,0.44,0.33,0.44
		h0.22v-0.33c-0.11,0-0.26-0.07-0.44-0.22H339.53z M339.64,20.32v0.33h0.11c0.15,0,0.22-0.07,0.22-0.22l-0.22-0.11H339.64z
		 M339.96,32.46l-0.11,0.22c0.11,0.51,0.25,0.77,0.44,0.77l0.11-0.22C340.4,32.82,340.26,32.57,339.96,32.46z M340.07,35.19v0.66
		h0.55V35.3L340.07,35.19z M340.07,36.83v0.22h0.22v-0.22H340.07z M341.17,19.11c0,0.26-0.26,0.47-0.77,0.66
		c0.09,0.36,0.2,0.55,0.33,0.55c0.58-0.33,0.88-0.69,0.88-1.09l-0.22-0.11H341.17z M340.62,42.3l-0.11,0.22v0.11l0.98,0.11v-0.22
		C341.37,42.52,341.08,42.45,340.62,42.3z M341.06,33.11h0.11c0.13,0,0.31,0.26,0.55,0.77c0.29,0,0.44,0.07,0.44,0.22v0.11h-0.98
		l-0.11-0.55V33.11z M341.06,40.11v0.33h0.33c0.15,0,0.22-0.07,0.22-0.22V40L341.06,40.11z M341.06,41.43v0.44h0.22
		c0.15,0,0.22-0.07,0.22-0.22v-0.22H341.06z M341.06,42.96v0.44h0.33l0.22-0.11c-0.07-0.15-0.11-0.25-0.11-0.33H341.06z
		 M342.15,17.47v0.22h0.11c0.15,0,0.22-0.07,0.22-0.22v-0.22h-0.11C342.22,17.27,342.15,17.35,342.15,17.47z M342.15,39.02
		c0.15,0.02,0.22,0.09,0.22,0.22h-0.22V39.02z M342.26,18.35v0.22h0.11v-0.22H342.26z M342.37,16.27v0.22h0.22
		C342.59,16.34,342.52,16.27,342.37,16.27z M342.81,35.41c0.15,0.02,0.22,0.09,0.22,0.22v0.44h-0.22c-0.15,0-0.22-0.07-0.22-0.22
		v-0.22C342.61,35.48,342.68,35.41,342.81,35.41z M343.36,18.02v0.11c0.02,0.15,0.09,0.22,0.22,0.22l0.11-0.22v-0.11H343.36z
		 M343.57,36.18c0.22,0,0.44,0.22,0.66,0.66c-0.11,0-0.26,0.07-0.44,0.22c-0.11,0-0.22-0.11-0.33-0.33v-0.33L343.57,36.18z
		 M343.9,40.22h0.22v0.11h-0.22V40.22z M345,39.13h0.33c0.15,0.02,0.22,0.09,0.22,0.22c0,0.11-0.11,0.22-0.33,0.33h-0.11
		c-0.11,0-0.22-0.11-0.33-0.33C344.79,39.2,344.87,39.13,345,39.13z M345.32,41.32c0.36,0.44,0.58,0.66,0.66,0.66l0.44-0.55h0.11
		l0.22,0.11l-0.22,0.44c0.15,0.02,0.22,0.09,0.22,0.22v0.11h-0.77l-0.44,0.33h-0.11c-0.15,0-0.26-0.4-0.33-1.2L345.32,41.32z
		 M346.75,42.3c0.15,0.02,0.22,0.09,0.22,0.22h-0.22V42.3z M347.29,46.24l0.55,0.11c0-0.07,0.04-0.11,0.11-0.11l0.11,0.22
		l-0.22,0.11h-0.77v-0.11C347.09,46.31,347.17,46.24,347.29,46.24z M348.17,43.83l0.11,0.22v0.98c-0.15,0.51-0.22,0.8-0.22,0.88
		l-0.33-0.22c0.07-0.6,0.15-0.97,0.22-1.09c-0.07-0.13-0.11-0.27-0.11-0.44C347.84,44.05,347.95,43.94,348.17,43.83z M348.17,41.1
		c0.11,0,0.22,0.11,0.33,0.33v0.11c0,0.15-0.07,0.22-0.22,0.22c-0.11,0-0.22-0.11-0.33-0.33v-0.11
		C347.97,41.17,348.04,41.1,348.17,41.1z M350.46,45.58l0.11,0.22c0,0.15-0.07,0.22-0.22,0.22l-0.22-0.11
		c-0.4,0.36-0.88,0.55-1.42,0.55v-0.22C348.71,46.02,349.3,45.8,350.46,45.58z M349.26,43.29h0.22v0.22c0,0.09-0.18,0.27-0.55,0.55
		h-0.11v-0.11C348.99,43.5,349.13,43.29,349.26,43.29z M349.92,44.05h0.11c0.29,0.11,0.44,0.36,0.44,0.77l-0.22,0.11
		c-0.15,0-0.22-0.15-0.22-0.44h-0.33v0.55l-0.22,0.33c-0.44-0.15-0.66-0.29-0.66-0.44V44.6l0.11-0.22l0.55,0.11h0.11
		C349.63,44.2,349.74,44.05,349.92,44.05z M350.14,41.43c0.46,0.47,0.71,0.88,0.77,1.2c-0.07,0-0.11,0.04-0.11,0.11
		c-0.24-0.15-0.42-0.22-0.55-0.22v0.11l0.22,0.77h0.44v-0.22h0.22v0.44c0,0.11-0.11,0.22-0.33,0.33h-0.11
		c-0.46-0.29-0.75-0.44-0.88-0.44c0-0.16,0.04-0.31,0.11-0.44c-0.07-0.13-0.11-0.27-0.11-0.44c0-0.22,0.22-0.33,0.66-0.33v-0.22
		l-0.55-0.44C349.94,41.5,350.01,41.43,350.14,41.43z"/>
</g>
</svg>
